<?xml version="1.0" standalone="no"?>
  <!DOCTYPE svg PUBLIC "-//W3C//DTD SVG 1.1//EN" "http://www.w3.org/Graphics/SVG/1.1/DTD/svg11.dtd" >
  <svg>
  <metadata>
  Created by font-carrier
  </metadata>
  <defs>
  <font id="Montserrat-Bold" horiz-adv-x="1703" vert-adv-y="1703" >
    <font-face
      
      font-family="Montserrat"
      
      font-weight="400"
      
      font-stretch="normal"
      
      units-per-em="1000"
      
      ascent="968"
      
      descent="-251"
      
    />
      <missing-glyph />

      

      
      <glyph glyph-name="uni41" unicode="&#x41;" d="M544 150L219 150L157 0L-9 0L303 700L463 700L776 0L606 0L544 150M493 273L382 541L271 273L493 273Z"  horiz-adv-x="766" vert-adv-y="1000"  />

      
      <glyph glyph-name="unic1" unicode="&#xc1;" d="M544 150L219 150L157 0L-9 0L303 700L463 700L776 0L606 0L544 150M493 273L382 541L271 273L493 273M427 901L595 901L414 757L292 757L427 901Z"  horiz-adv-x="766" vert-adv-y="1000"  />

      
      <glyph glyph-name="uni0102" unicode="&#x0102;" d="M544 150L219 150L157 0L-9 0L303 700L463 700L776 0L606 0L544 150M493 273L382 541L271 273L493 273M383 749Q304 749 253 790Q202 831 199 901L297 901Q298 869 322.50 849.50Q347 830 383 830Q419 830 443.50 849.50Q468 869 469 901L567 901Q564 831 513 790Q462 749 383 749Z"  horiz-adv-x="766" vert-adv-y="1000"  />

      
      <glyph glyph-name="uni1EAE" unicode="&#x1EAE;" d="M544 150L219 150L157 0L-9 0L303 700L463 700L776 0L606 0L544 150M493 273L382 541L271 273L493 273M383 749Q305 749 254.50 782Q204 815 199 871L293 871Q296 850 321 837Q346 824 383 824Q420 824 445 837Q470 850 473 871L567 871Q562 815 511.50 782Q461 749 383 749M408 1022L567 1022L410 901L297 901L408 1022Z"  horiz-adv-x="766" vert-adv-y="1000"  />

      
      <glyph glyph-name="uni1EB6" unicode="&#x1EB6;" d="M544 150L219 150L157 0L-9 0L303 700L463 700L776 0L606 0L544 150M493 273L382 541L271 273L493 273M383-210Q353-210 333.50-191.50Q314-173 314-143Q314-113 333.50-93Q353-73 383-73Q412-73 432-93Q452-113 452-143Q452-173 432.50-191.50Q413-210 383-210M383 749Q304 749 253 790Q202 831 199 901L297 901Q298 869 322.50 849.50Q347 830 383 830Q419 830 443.50 849.50Q468 869 469 901L567 901Q564 831 513 790Q462 749 383 749Z"  horiz-adv-x="766" vert-adv-y="1000"  />

      
      <glyph glyph-name="uni1EB0" unicode="&#x1EB0;" d="M544 150L219 150L157 0L-9 0L303 700L463 700L776 0L606 0L544 150M493 273L382 541L271 273L493 273M383 749Q305 749 254.50 782Q204 815 199 871L293 871Q296 850 321 837Q346 824 383 824Q420 824 445 837Q470 850 473 871L567 871Q562 815 511.50 782Q461 749 383 749M200 1022L359 1022L469 901L357 901L200 1022Z"  horiz-adv-x="766" vert-adv-y="1000"  />

      
      <glyph glyph-name="uni1EB2" unicode="&#x1EB2;" d="M544 150L219 150L157 0L-9 0L303 700L463 700L776 0L606 0L544 150M493 273L382 541L271 273L493 273M383 749Q305 749 254.50 782Q204 815 199 871L293 871Q296 850 321 837Q346 824 383 824Q420 824 445 837Q470 850 473 871L567 871Q562 815 511.50 782Q461 749 383 749M370 910Q407 928 407 952Q407 965 397.50 973Q388 981 373 981Q352 981 329 969L303 1017Q337 1039 386 1039Q428 1039 453 1017.50Q478 996 478 960Q478 931 458.50 908Q439 885 408 873L370 910Z"  horiz-adv-x="766" vert-adv-y="1000"  />

      
      <glyph glyph-name="uni1EB4" unicode="&#x1EB4;" d="M544 150L219 150L157 0L-9 0L303 700L463 700L776 0L606 0L544 150M493 273L382 541L271 273L493 273M383 749Q305 749 254.50 782Q204 815 199 871L293 871Q296 850 321 837Q346 824 383 824Q420 824 445 837Q470 850 473 871L567 871Q562 815 511.50 782Q461 749 383 749M457 899Q430 899 409 907.50Q388 916 363 932Q351 939 339.50 945Q328 951 319 951Q299 951 288 939Q277 927 275 905L195 905Q196 965 226.50 997.50Q257 1030 311 1030Q337 1030 355.50 1022Q374 1014 402 998Q418 988 428.50 983Q439 978 449 978Q469 978 480 990.50Q491 1003 493 1023L571 1023Q570 965 540 932Q510 899 457 899Z"  horiz-adv-x="766" vert-adv-y="1000"  />

      
      <glyph glyph-name="uni01CD" unicode="&#x01CD;" d="M544 150L219 150L157 0L-9 0L303 700L463 700L776 0L606 0L544 150M493 273L382 541L271 273L493 273M584 901L452 757L314 757L182 901L296 901L383 826L470 901L584 901Z"  horiz-adv-x="766" vert-adv-y="1000"  />

      
      <glyph glyph-name="unic2" unicode="&#xc2;" d="M544 150L219 150L157 0L-9 0L303 700L463 700L776 0L606 0L544 150M493 273L382 541L271 273L493 273M470 757L383 833L296 757L182 757L314 901L452 901L584 757L470 757Z"  horiz-adv-x="766" vert-adv-y="1000"  />

      
      <glyph glyph-name="uni1EA4" unicode="&#x1EA4;" d="M544 150L219 150L157 0L-9 0L303 700L463 700L776 0L606 0L544 150M493 273L382 541L271 273L493 273M469 757L383 814L297 757L182 757L315 871L451 871L584 757L469 757M614 974L773 974L616 853L503 853L614 974Z"  horiz-adv-x="766" vert-adv-y="1000"  />

      
      <glyph glyph-name="uni1EAC" unicode="&#x1EAC;" d="M544 150L219 150L157 0L-9 0L303 700L463 700L776 0L606 0L544 150M493 273L382 541L271 273L493 273M383-210Q353-210 333.50-191.50Q314-173 314-143Q314-113 333.50-93Q353-73 383-73Q412-73 432-93Q452-113 452-143Q452-173 432.50-191.50Q413-210 383-210M470 757L383 833L296 757L182 757L314 901L452 901L584 757L470 757Z"  horiz-adv-x="766" vert-adv-y="1000"  />

      
      <glyph glyph-name="uni1EA6" unicode="&#x1EA6;" d="M544 150L219 150L157 0L-9 0L303 700L463 700L776 0L606 0L544 150M493 273L382 541L271 273L493 273M469 757L383 814L297 757L182 757L315 871L451 871L584 757L469 757M406 974L565 974L675 853L563 853L406 974Z"  horiz-adv-x="766" vert-adv-y="1000"  />

      
      <glyph glyph-name="uni1EA8" unicode="&#x1EA8;" d="M544 150L219 150L157 0L-9 0L303 700L463 700L776 0L606 0L544 150M493 273L382 541L271 273L493 273M469 757L383 814L297 757L182 757L315 871L451 871L584 757L469 757M523 871Q560 889 560 913Q560 926 550.50 934Q541 942 526 942Q505 942 482 930L456 978Q490 1000 539 1000Q581 1000 606 978.50Q631 957 631 921Q631 892 611.50 869Q592 846 561 834L523 871Z"  horiz-adv-x="766" vert-adv-y="1000"  />

      
      <glyph glyph-name="uni1EAA" unicode="&#x1EAA;" d="M544 150L219 150L157 0L-9 0L303 700L463 700L776 0L606 0L544 150M493 273L382 541L271 273L493 273M469 757L383 814L297 757L182 757L315 871L451 871L584 757L469 757M457 906Q430 906 409 914.50Q388 923 363 939Q351 946 339.50 952Q328 958 319 958Q299 958 288 946Q277 934 275 912L195 912Q196 972 226.50 1004.50Q257 1037 311 1037Q337 1037 355.50 1029Q374 1021 402 1005Q418 995 428.50 990Q439 985 449 985Q469 985 480 997.50Q491 1010 493 1030L571 1030Q570 972 540 939Q510 906 457 906Z"  horiz-adv-x="766" vert-adv-y="1000"  />

      
      <glyph glyph-name="uni0200" unicode="&#x0200;" d="M544 150L219 150L157 0L-9 0L303 700L463 700L776 0L606 0L544 150M493 273L382 541L271 273L493 273M121 901L267 901L339 757L225 757L121 901M323 901L469 901L541 757L427 757L323 901Z"  horiz-adv-x="766" vert-adv-y="1000"  />

      
      <glyph glyph-name="unic4" unicode="&#xc4;" d="M544 150L219 150L157 0L-9 0L303 700L463 700L776 0L606 0L544 150M493 273L382 541L271 273L493 273M282 762Q252 762 232 781.50Q212 801 212 831Q212 861 232 880.50Q252 900 282 900Q312 900 331.50 880.50Q351 861 351 831Q351 801 331.50 781.50Q312 762 282 762M484 762Q454 762 434.50 781.50Q415 801 415 831Q415 861 434.50 880.50Q454 900 484 900Q514 900 534 880.50Q554 861 554 831Q554 801 534 781.50Q514 762 484 762Z"  horiz-adv-x="766" vert-adv-y="1000"  />

      
      <glyph glyph-name="uni1EA0" unicode="&#x1EA0;" d="M544 150L219 150L157 0L-9 0L303 700L463 700L776 0L606 0L544 150M493 273L382 541L271 273L493 273M383-210Q353-210 333.50-191.50Q314-173 314-143Q314-113 333.50-93Q353-73 383-73Q412-73 432-93Q452-113 452-143Q452-173 432.50-191.50Q413-210 383-210Z"  horiz-adv-x="766" vert-adv-y="1000"  />

      
      <glyph glyph-name="unic0" unicode="&#xc0;" d="M544 150L219 150L157 0L-9 0L303 700L463 700L776 0L606 0L544 150M493 273L382 541L271 273L493 273M171 901L339 901L474 757L352 757L171 901Z"  horiz-adv-x="766" vert-adv-y="1000"  />

      
      <glyph glyph-name="uni1EA2" unicode="&#x1EA2;" d="M544 150L219 150L157 0L-9 0L303 700L463 700L776 0L606 0L544 150M493 273L382 541L271 273L493 273M364 799Q392 812 403.50 827Q415 842 415 860Q415 879 402 890.50Q389 902 368 902Q338 902 309 883L277 946Q320 980 385 980Q438 980 471.50 950.50Q505 921 505 873Q505 789 413 747L364 799Z"  horiz-adv-x="766" vert-adv-y="1000"  />

      
      <glyph glyph-name="uni0202" unicode="&#x0202;" d="M544 150L219 150L157 0L-9 0L303 700L463 700L776 0L606 0L544 150M493 273L382 541L271 273L493 273M199 757Q202 827 253 868Q304 909 383 909Q462 909 513 868Q564 827 567 757L469 757Q468 789 443.50 808.50Q419 828 383 828Q347 828 322.50 808.50Q298 789 297 757L199 757Z"  horiz-adv-x="766" vert-adv-y="1000"  />

      
      <glyph glyph-name="uni0100" unicode="&#x0100;" d="M544 150L219 150L157 0L-9 0L303 700L463 700L776 0L606 0L544 150M493 273L382 541L271 273L493 273M198 873L568 873L568 785L198 785L198 873Z"  horiz-adv-x="766" vert-adv-y="1000"  />

      
      <glyph glyph-name="uni0104" unicode="&#x0104;" d="M544 150L219 150L157 0L-9 0L303 700L463 700L776 0L606 0L544 150M493 273L382 541L271 273L493 273M698-232Q634-232 597-201.50Q560-171 560-120Q560-71 598.50-29Q637 13 714 41L776 0Q713-28 686-53.50Q659-79 659-107Q659-128 674.50-140.50Q690-153 716-153Q750-153 777-138L799-209Q780-219 753-225.50Q726-232 698-232Z"  horiz-adv-x="766" vert-adv-y="1000"  />

      
      <glyph glyph-name="unic5" unicode="&#xc5;" d="M544 150L219 150L157 0L-9 0L303 700L463 700L776 0L606 0L544 150M493 273L382 541L271 273L493 273M382 754Q330 754 294.50 789Q259 824 259 875Q259 926 294.50 961Q330 996 382 996Q435 996 471 961Q507 926 507 875Q507 824 471 789Q435 754 382 754M382 814Q408 814 425.50 831.50Q443 849 443 875Q443 901 425.50 918.50Q408 936 382 936Q357 936 339.50 918.50Q322 901 322 875Q322 849 339 831.50Q356 814 382 814Z"  horiz-adv-x="766" vert-adv-y="1000"  />

      
      <glyph glyph-name="uni01FA" unicode="&#x01FA;" d="M544 150L219 150L157 0L-9 0L303 700L463 700L776 0L606 0L544 150M493 273L382 541L271 273L493 273M490 938Q507 909 507 875Q507 824 471 789Q435 754 382 754Q330 754 294.50 789Q259 824 259 875Q259 926 294.50 961Q330 996 382 996Q407 996 434 986L521 1076L598 1016L490 938M382 814Q408 814 425.50 831.50Q443 849 443 875Q443 901 425.50 918.50Q408 936 382 936Q357 936 339.50 918.50Q322 901 322 875Q322 849 339 831.50Q356 814 382 814Z"  horiz-adv-x="766" vert-adv-y="1000"  />

      
      <glyph glyph-name="unic3" unicode="&#xc3;" d="M544 150L219 150L157 0L-9 0L303 700L463 700L776 0L606 0L544 150M493 273L382 541L271 273L493 273M458 754Q431 754 410.50 764.50Q390 775 365 793Q349 805 338.50 811Q328 817 318 817Q297 817 284 802.50Q271 788 270 761L191 761Q193 828 224.50 867.50Q256 907 308 907Q334 907 354.50 896.50Q375 886 401 867Q417 855 427.50 849Q438 843 448 843Q468 843 481.50 857.50Q495 872 496 897L575 897Q573 832 541.50 793Q510 754 458 754Z"  horiz-adv-x="766" vert-adv-y="1000"  />

      
      <glyph glyph-name="unic6" unicode="&#xc6;" d="M1034 130L1034 0L492 0L492 150L239 150L157 0L-9 0L386 700L1021 700L1021 570L653 570L653 418L979 418L979 292L653 292L653 130L1034 130M492 273L492 570L469 570L306 273L492 273Z"  horiz-adv-x="1080" vert-adv-y="1000"  />

      
      <glyph glyph-name="uni01FC" unicode="&#x01FC;" d="M1034 130L1034 0L492 0L492 150L239 150L157 0L-9 0L386 700L1021 700L1021 570L653 570L653 418L979 418L979 292L653 292L653 130L1034 130M492 273L492 570L469 570L306 273L492 273M616 901L784 901L603 757L481 757L616 901Z"  horiz-adv-x="1080" vert-adv-y="1000"  />

      
      <glyph glyph-name="uni42" unicode="&#x42;" d="M597 364Q657 345 691 300.50Q725 256 725 191Q725 99 653.50 49.50Q582 0 445 0L83 0L83 700L425 700Q553 700 621.50 651Q690 602 690 518Q690 467 665.50 427Q641 387 597 364M244 578L244 413L405 413Q465 413 496 434Q527 455 527 496Q527 537 496 557.50Q465 578 405 578L244 578M433 122Q497 122 529.50 143Q562 164 562 208Q562 295 433 295L244 295L244 122L433 122Z"  horiz-adv-x="765" vert-adv-y="1000"  />

      
      <glyph glyph-name="uni43" unicode="&#x43;" d="M418-12Q311-12 224.50 34.50Q138 81 88.50 163.50Q39 246 39 350Q39 454 88.50 536.50Q138 619 224.50 665.50Q311 712 419 712Q510 712 583.50 680Q657 648 707 588L603 492Q532 574 427 574Q362 574 311 545.50Q260 517 231.50 466Q203 415 203 350Q203 285 231.50 234Q260 183 311 154.50Q362 126 427 126Q532 126 603 209L707 113Q657 52 583 20Q509-12 418-12Z"  horiz-adv-x="733" vert-adv-y="1000"  />

      
      <glyph glyph-name="uni0106" unicode="&#x0106;" d="M418-12Q311-12 224.50 34.50Q138 81 88.50 163.50Q39 246 39 350Q39 454 88.50 536.50Q138 619 224.50 665.50Q311 712 419 712Q510 712 583.50 680Q657 648 707 588L603 492Q532 574 427 574Q362 574 311 545.50Q260 517 231.50 466Q203 415 203 350Q203 285 231.50 234Q260 183 311 154.50Q362 126 427 126Q532 126 603 209L707 113Q657 52 583 20Q509-12 418-12M458 901L626 901L445 757L323 757L458 901Z"  horiz-adv-x="733" vert-adv-y="1000"  />

      
      <glyph glyph-name="uni010C" unicode="&#x010C;" d="M418-12Q311-12 224.50 34.50Q138 81 88.50 163.50Q39 246 39 350Q39 454 88.50 536.50Q138 619 224.50 665.50Q311 712 419 712Q510 712 583.50 680Q657 648 707 588L603 492Q532 574 427 574Q362 574 311 545.50Q260 517 231.50 466Q203 415 203 350Q203 285 231.50 234Q260 183 311 154.50Q362 126 427 126Q532 126 603 209L707 113Q657 52 583 20Q509-12 418-12M615 901L483 757L345 757L213 901L327 901L414 826L501 901L615 901Z"  horiz-adv-x="733" vert-adv-y="1000"  />

      
      <glyph glyph-name="unic7" unicode="&#xc7;" d="M418-12Q311-12 224.50 34.50Q138 81 88.50 163.50Q39 246 39 350Q39 454 88.50 536.50Q138 619 224.50 665.50Q311 712 419 712Q510 712 583.50 680Q657 648 707 588L603 492Q532 574 427 574Q362 574 311 545.50Q260 517 231.50 466Q203 415 203 350Q203 285 231.50 234Q260 183 311 154.50Q362 126 427 126Q532 126 603 209L707 113Q657 52 583 20Q509-12 418-12M364-232Q338-232 313-226.50Q288-221 271-211L295-144Q327-159 360-159Q412-159 412-127Q412-98 363-98L329-98L355 8L438 8L424-50Q468-55 489.50-77.50Q511-100 511-133Q511-179 471-205.50Q431-232 364-232Z"  horiz-adv-x="733" vert-adv-y="1000"  />

      
      <glyph glyph-name="uni1E08" unicode="&#x1E08;" d="M418-12Q311-12 224.50 34.50Q138 81 88.50 163.50Q39 246 39 350Q39 454 88.50 536.50Q138 619 224.50 665.50Q311 712 419 712Q510 712 583.50 680Q657 648 707 588L603 492Q532 574 427 574Q362 574 311 545.50Q260 517 231.50 466Q203 415 203 350Q203 285 231.50 234Q260 183 311 154.50Q362 126 427 126Q532 126 603 209L707 113Q657 52 583 20Q509-12 418-12M364-232Q338-232 313-226.50Q288-221 271-211L295-144Q327-159 360-159Q412-159 412-127Q412-98 363-98L329-98L355 8L438 8L424-50Q468-55 489.50-77.50Q511-100 511-133Q511-179 471-205.50Q431-232 364-232M458 901L626 901L445 757L323 757L458 901Z"  horiz-adv-x="733" vert-adv-y="1000"  />

      
      <glyph glyph-name="uni0108" unicode="&#x0108;" d="M418-12Q311-12 224.50 34.50Q138 81 88.50 163.50Q39 246 39 350Q39 454 88.50 536.50Q138 619 224.50 665.50Q311 712 419 712Q510 712 583.50 680Q657 648 707 588L603 492Q532 574 427 574Q362 574 311 545.50Q260 517 231.50 466Q203 415 203 350Q203 285 231.50 234Q260 183 311 154.50Q362 126 427 126Q532 126 603 209L707 113Q657 52 583 20Q509-12 418-12M501 757L414 833L327 757L213 757L345 901L483 901L615 757L501 757Z"  horiz-adv-x="733" vert-adv-y="1000"  />

      
      <glyph glyph-name="uni010A" unicode="&#x010A;" d="M418-12Q311-12 224.50 34.50Q138 81 88.50 163.50Q39 246 39 350Q39 454 88.50 536.50Q138 619 224.50 665.50Q311 712 419 712Q510 712 583.50 680Q657 648 707 588L603 492Q532 574 427 574Q362 574 311 545.50Q260 517 231.50 466Q203 415 203 350Q203 285 231.50 234Q260 183 311 154.50Q362 126 427 126Q532 126 603 209L707 113Q657 52 583 20Q509-12 418-12M414 762Q377 762 353.50 786Q330 810 330 847Q330 883 353.50 907Q377 931 414 931Q451 931 474.50 907Q498 883 498 847Q498 810 474.50 786Q451 762 414 762Z"  horiz-adv-x="733" vert-adv-y="1000"  />

      
      <glyph glyph-name="uni44" unicode="&#x44;" d="M83 700L401 700Q515 700 602.50 656.50Q690 613 738.50 534Q787 455 787 350Q787 245 738.50 166Q690 87 602.50 43.50Q515 0 401 0L83 0L83 700M393 133Q498 133 560.50 191.50Q623 250 623 350Q623 450 560.50 508.50Q498 567 393 567L245 567L245 133L393 133Z"  horiz-adv-x="826" vert-adv-y="1000"  />

      
      <glyph glyph-name="uni01C4" unicode="&#x01C4;" d="M83 700L401 700Q515 700 602.50 656.50Q690 613 738.50 534Q787 455 787 350Q787 245 738.50 166Q690 87 602.50 43.50Q515 0 401 0L83 0L83 700M393 133Q498 133 560.50 191.50Q623 250 623 350Q623 450 560.50 508.50Q498 567 393 567L245 567L245 133L393 133M1427 132L1427 0L815 0L815 105L1199 568L823 568L823 700L1412 700L1412 595L1029 132L1427 132M1322 901L1190 757L1052 757L920 901L1034 901L1121 826L1208 901L1322 901Z"  horiz-adv-x="1449" vert-adv-y="1000"  />

      
      <glyph glyph-name="unid0" unicode="&#xd0;" d="M96 700L414 700Q528 700 615.50 656.50Q703 613 751.50 534Q800 455 800 350Q800 245 751.50 166Q703 87 615.50 43.50Q528 0 414 0L96 0L96 700M406 133Q511 133 573.50 191.50Q636 250 636 350Q636 450 573.50 508.50Q511 567 406 567L258 567L258 133L406 133M1 410L433 410L433 302L1 302L1 410Z"  horiz-adv-x="839" vert-adv-y="1000"  />

      
      <glyph glyph-name="uni010E" unicode="&#x010E;" d="M83 700L401 700Q515 700 602.50 656.50Q690 613 738.50 534Q787 455 787 350Q787 245 738.50 166Q690 87 602.50 43.50Q515 0 401 0L83 0L83 700M393 133Q498 133 560.50 191.50Q623 250 623 350Q623 450 560.50 508.50Q498 567 393 567L245 567L245 133L393 133M571 900L439 756L301 756L169 900L283 900L370 825L457 900L571 900Z"  horiz-adv-x="826" vert-adv-y="1000"  />

      
      <glyph glyph-name="uni0110" unicode="&#x0110;" d="M96 700L414 700Q528 700 615.50 656.50Q703 613 751.50 534Q800 455 800 350Q800 245 751.50 166Q703 87 615.50 43.50Q528 0 414 0L96 0L96 700M406 133Q511 133 573.50 191.50Q636 250 636 350Q636 450 573.50 508.50Q511 567 406 567L258 567L258 133L406 133M1 410L433 410L433 302L1 302L1 410Z"  horiz-adv-x="839" vert-adv-y="1000"  />

      
      <glyph glyph-name="uni1E0C" unicode="&#x1E0C;" d="M83 700L401 700Q515 700 602.50 656.50Q690 613 738.50 534Q787 455 787 350Q787 245 738.50 166Q690 87 602.50 43.50Q515 0 401 0L83 0L83 700M393 133Q498 133 560.50 191.50Q623 250 623 350Q623 450 560.50 508.50Q498 567 393 567L245 567L245 133L393 133M373-210Q343-210 323.50-191.50Q304-173 304-143Q304-113 323.50-93Q343-73 373-73Q402-73 422-93Q442-113 442-143Q442-173 422.50-191.50Q403-210 373-210Z"  horiz-adv-x="826" vert-adv-y="1000"  />

      
      <glyph glyph-name="uni1E0E" unicode="&#x1E0E;" d="M83 700L401 700Q515 700 602.50 656.50Q690 613 738.50 534Q787 455 787 350Q787 245 738.50 166Q690 87 602.50 43.50Q515 0 401 0L83 0L83 700M393 133Q498 133 560.50 191.50Q623 250 623 350Q623 450 560.50 508.50Q498 567 393 567L245 567L245 133L393 133M188-95L558-95L558-182L188-182L188-95Z"  horiz-adv-x="826" vert-adv-y="1000"  />

      
      <glyph glyph-name="uni01C5" unicode="&#x01C5;" d="M83 700L401 700Q515 700 602.50 656.50Q690 613 738.50 534Q787 455 787 350Q787 245 738.50 166Q690 87 602.50 43.50Q515 0 401 0L83 0L83 700M393 133Q498 133 560.50 191.50Q623 250 623 350Q623 450 560.50 508.50Q498 567 393 567L245 567L245 133L393 133M1341 120L1341 0L861 0L861 94L1135 418L868 418L868 538L1332 538L1332 444L1058 120L1341 120M1302 751L1170 607L1032 607L900 751L1014 751L1101 676L1188 751L1302 751Z"  horiz-adv-x="1369" vert-adv-y="1000"  />

      
      <glyph glyph-name="uni45" unicode="&#x45;" d="M625 130L625 0L83 0L83 700L612 700L612 570L244 570L244 418L569 418L569 292L244 292L244 130L625 130Z"  horiz-adv-x="671" vert-adv-y="1000"  />

      
      <glyph glyph-name="unic9" unicode="&#xc9;" d="M625 130L625 0L83 0L83 700L612 700L612 570L244 570L244 418L569 418L569 292L244 292L244 130L625 130M392 901L560 901L379 757L257 757L392 901Z"  horiz-adv-x="671" vert-adv-y="1000"  />

      
      <glyph glyph-name="uni0114" unicode="&#x0114;" d="M625 130L625 0L83 0L83 700L612 700L612 570L244 570L244 418L569 418L569 292L244 292L244 130L625 130M348 749Q269 749 218 790Q167 831 164 901L262 901Q263 869 287.50 849.50Q312 830 348 830Q384 830 408.50 849.50Q433 869 434 901L532 901Q529 831 478 790Q427 749 348 749Z"  horiz-adv-x="671" vert-adv-y="1000"  />

      
      <glyph glyph-name="uni011A" unicode="&#x011A;" d="M625 130L625 0L83 0L83 700L612 700L612 570L244 570L244 418L569 418L569 292L244 292L244 130L625 130M549 901L417 757L279 757L147 901L261 901L348 826L435 901L549 901Z"  horiz-adv-x="671" vert-adv-y="1000"  />

      
      <glyph glyph-name="uni1E1C" unicode="&#x1E1C;" d="M625 130L625 0L83 0L83 700L612 700L612 570L244 570L244 418L569 418L569 292L244 292L244 130L625 130M320-232Q294-232 269-226.50Q244-221 227-211L251-144Q283-159 316-159Q368-159 368-127Q368-98 319-98L285-98L311 8L394 8L380-50Q424-55 445.50-77.50Q467-100 467-133Q467-179 427-205.50Q387-232 320-232M348 749Q269 749 218 790Q167 831 164 901L262 901Q263 869 287.50 849.50Q312 830 348 830Q384 830 408.50 849.50Q433 869 434 901L532 901Q529 831 478 790Q427 749 348 749Z"  horiz-adv-x="671" vert-adv-y="1000"  />

      
      <glyph glyph-name="unica" unicode="&#xca;" d="M625 130L625 0L83 0L83 700L612 700L612 570L244 570L244 418L569 418L569 292L244 292L244 130L625 130M435 757L348 833L261 757L147 757L279 901L417 901L549 757L435 757Z"  horiz-adv-x="671" vert-adv-y="1000"  />

      
      <glyph glyph-name="uni1EBE" unicode="&#x1EBE;" d="M625 130L625 0L83 0L83 700L612 700L612 570L244 570L244 418L569 418L569 292L244 292L244 130L625 130M434 757L348 814L262 757L147 757L280 871L416 871L549 757L434 757M579 974L738 974L581 853L468 853L579 974Z"  horiz-adv-x="671" vert-adv-y="1000"  />

      
      <glyph glyph-name="uni1EC6" unicode="&#x1EC6;" d="M625 130L625 0L83 0L83 700L612 700L612 570L244 570L244 418L569 418L569 292L244 292L244 130L625 130M353-210Q323-210 303.50-191.50Q284-173 284-143Q284-113 303.50-93Q323-73 353-73Q382-73 402-93Q422-113 422-143Q422-173 402.50-191.50Q383-210 353-210M435 757L348 833L261 757L147 757L279 901L417 901L549 757L435 757Z"  horiz-adv-x="671" vert-adv-y="1000"  />

      
      <glyph glyph-name="uni1EC0" unicode="&#x1EC0;" d="M625 130L625 0L83 0L83 700L612 700L612 570L244 570L244 418L569 418L569 292L244 292L244 130L625 130M434 757L348 814L262 757L147 757L280 871L416 871L549 757L434 757M371 974L530 974L640 853L528 853L371 974Z"  horiz-adv-x="671" vert-adv-y="1000"  />

      
      <glyph glyph-name="uni1EC2" unicode="&#x1EC2;" d="M625 130L625 0L83 0L83 700L612 700L612 570L244 570L244 418L569 418L569 292L244 292L244 130L625 130M434 757L348 814L262 757L147 757L280 871L416 871L549 757L434 757M488 871Q525 889 525 913Q525 926 515.50 934Q506 942 491 942Q470 942 447 930L421 978Q455 1000 504 1000Q546 1000 571 978.50Q596 957 596 921Q596 892 576.50 869Q557 846 526 834L488 871Z"  horiz-adv-x="671" vert-adv-y="1000"  />

      
      <glyph glyph-name="uni1EC4" unicode="&#x1EC4;" d="M625 130L625 0L83 0L83 700L612 700L612 570L244 570L244 418L569 418L569 292L244 292L244 130L625 130M434 757L348 814L262 757L147 757L280 871L416 871L549 757L434 757M422 906Q395 906 374 914.50Q353 923 328 939Q316 946 304.50 952Q293 958 284 958Q264 958 253 946Q242 934 240 912L160 912Q161 972 191.50 1004.50Q222 1037 276 1037Q302 1037 320.50 1029Q339 1021 367 1005Q383 995 393.50 990Q404 985 414 985Q434 985 445 997.50Q456 1010 458 1030L536 1030Q535 972 505 939Q475 906 422 906Z"  horiz-adv-x="671" vert-adv-y="1000"  />

      
      <glyph glyph-name="uni0204" unicode="&#x0204;" d="M625 130L625 0L83 0L83 700L612 700L612 570L244 570L244 418L569 418L569 292L244 292L244 130L625 130M86 901L232 901L304 757L190 757L86 901M288 901L434 901L506 757L392 757L288 901Z"  horiz-adv-x="671" vert-adv-y="1000"  />

      
      <glyph glyph-name="unicb" unicode="&#xcb;" d="M625 130L625 0L83 0L83 700L612 700L612 570L244 570L244 418L569 418L569 292L244 292L244 130L625 130M247 762Q217 762 197 781.50Q177 801 177 831Q177 861 197 880.50Q217 900 247 900Q277 900 296.50 880.50Q316 861 316 831Q316 801 296.50 781.50Q277 762 247 762M449 762Q419 762 399.50 781.50Q380 801 380 831Q380 861 399.50 880.50Q419 900 449 900Q479 900 499 880.50Q519 861 519 831Q519 801 499 781.50Q479 762 449 762Z"  horiz-adv-x="671" vert-adv-y="1000"  />

      
      <glyph glyph-name="uni0116" unicode="&#x0116;" d="M625 130L625 0L83 0L83 700L612 700L612 570L244 570L244 418L569 418L569 292L244 292L244 130L625 130M348 762Q311 762 287.50 786Q264 810 264 847Q264 883 287.50 907Q311 931 348 931Q385 931 408.50 907Q432 883 432 847Q432 810 408.50 786Q385 762 348 762Z"  horiz-adv-x="671" vert-adv-y="1000"  />

      
      <glyph glyph-name="uni1EB8" unicode="&#x1EB8;" d="M625 130L625 0L83 0L83 700L612 700L612 570L244 570L244 418L569 418L569 292L244 292L244 130L625 130M353-210Q323-210 303.50-191.50Q284-173 284-143Q284-113 303.50-93Q323-73 353-73Q382-73 402-93Q422-113 422-143Q422-173 402.50-191.50Q383-210 353-210Z"  horiz-adv-x="671" vert-adv-y="1000"  />

      
      <glyph glyph-name="unic8" unicode="&#xc8;" d="M625 130L625 0L83 0L83 700L612 700L612 570L244 570L244 418L569 418L569 292L244 292L244 130L625 130M136 901L304 901L439 757L317 757L136 901Z"  horiz-adv-x="671" vert-adv-y="1000"  />

      
      <glyph glyph-name="uni1EBA" unicode="&#x1EBA;" d="M625 130L625 0L83 0L83 700L612 700L612 570L244 570L244 418L569 418L569 292L244 292L244 130L625 130M329 799Q357 812 368.50 827Q380 842 380 860Q380 879 367 890.50Q354 902 333 902Q303 902 274 883L242 946Q285 980 350 980Q403 980 436.50 950.50Q470 921 470 873Q470 789 378 747L329 799Z"  horiz-adv-x="671" vert-adv-y="1000"  />

      
      <glyph glyph-name="uni0206" unicode="&#x0206;" d="M625 130L625 0L83 0L83 700L612 700L612 570L244 570L244 418L569 418L569 292L244 292L244 130L625 130M164 757Q167 827 218 868Q269 909 348 909Q427 909 478 868Q529 827 532 757L434 757Q433 789 408.50 808.50Q384 828 348 828Q312 828 287.50 808.50Q263 789 262 757L164 757Z"  horiz-adv-x="671" vert-adv-y="1000"  />

      
      <glyph glyph-name="uni0112" unicode="&#x0112;" d="M625 130L625 0L83 0L83 700L612 700L612 570L244 570L244 418L569 418L569 292L244 292L244 130L625 130M163 873L533 873L533 785L163 785L163 873Z"  horiz-adv-x="671" vert-adv-y="1000"  />

      
      <glyph glyph-name="uni1E16" unicode="&#x1E16;" d="M625 130L625 0L83 0L83 700L612 700L612 570L244 570L244 418L569 418L569 292L244 292L244 130L625 130M163 856L533 856L533 773L163 773L163 856M373 1039L532 1039L375 918L262 918L373 1039Z"  horiz-adv-x="671" vert-adv-y="1000"  />

      
      <glyph glyph-name="uni1E14" unicode="&#x1E14;" d="M625 130L625 0L83 0L83 700L612 700L612 570L244 570L244 418L569 418L569 292L244 292L244 130L625 130M163 856L533 856L533 773L163 773L163 856M165 1039L324 1039L434 918L322 918L165 1039Z"  horiz-adv-x="671" vert-adv-y="1000"  />

      
      <glyph glyph-name="uni0118" unicode="&#x0118;" d="M625 130L625 0L83 0L83 700L612 700L612 570L244 570L244 418L569 418L569 292L244 292L244 130L625 130M547-232Q483-232 446-201.50Q409-171 409-120Q409-71 447.50-29Q486 13 563 41L625 0Q562-28 535-53.50Q508-79 508-107Q508-128 523.50-140.50Q539-153 565-153Q599-153 626-138L648-209Q629-219 602-225.50Q575-232 547-232Z"  horiz-adv-x="671" vert-adv-y="1000"  />

      
      <glyph glyph-name="uni1EBC" unicode="&#x1EBC;" d="M625 130L625 0L83 0L83 700L612 700L612 570L244 570L244 418L569 418L569 292L244 292L244 130L625 130M423 754Q396 754 375.50 764.50Q355 775 330 793Q314 805 303.50 811Q293 817 283 817Q262 817 249 802.50Q236 788 235 761L156 761Q158 828 189.50 867.50Q221 907 273 907Q299 907 319.50 896.50Q340 886 366 867Q382 855 392.50 849Q403 843 413 843Q433 843 446.50 857.50Q460 872 461 897L540 897Q538 832 506.50 793Q475 754 423 754Z"  horiz-adv-x="671" vert-adv-y="1000"  />

      
      <glyph glyph-name="uni01B7" unicode="&#x01B7;" d="M395 416Q495 401 548 348Q601 295 601 215Q601 153 568 101.50Q535 50 467 19Q399-12 299-12Q221-12 147 7.50Q73 27 25 62L80 187Q122 156 178.50 139Q235 122 294 122Q361 122 399 146.50Q437 171 437 214Q437 256 402 279Q367 302 295 302L220 302L220 407L376 571L54 571L54 700L565 700L565 595L395 416Z"  horiz-adv-x="638" vert-adv-y="1000"  />

      
      <glyph glyph-name="uni01EE" unicode="&#x01EE;" d="M395 416Q495 401 548 348Q601 295 601 215Q601 153 568 101.50Q535 50 467 19Q399-12 299-12Q221-12 147 7.50Q73 27 25 62L80 187Q122 156 178.50 139Q235 122 294 122Q361 122 399 146.50Q437 171 437 214Q437 256 402 279Q367 302 295 302L220 302L220 407L376 571L54 571L54 700L565 700L565 595L395 416M511 901L379 757L241 757L109 901L223 901L310 826L397 901L511 901Z"  horiz-adv-x="638" vert-adv-y="1000"  />

      
      <glyph glyph-name="uni46" unicode="&#x46;" d="M245 570L245 385L569 385L569 255L245 255L245 0L83 0L83 700L612 700L612 570L245 570Z"  horiz-adv-x="639" vert-adv-y="1000"  />

      
      <glyph glyph-name="uni47" unicode="&#x47;" d="M556 361L704 361L704 77Q647 34 572 11Q497-12 421-12Q312-12 225 34.50Q138 81 88.50 163.50Q39 246 39 350Q39 454 88.50 536.50Q138 619 226 665.50Q314 712 424 712Q516 712 591 681Q666 650 717 591L613 495Q538 574 432 574Q365 574 313 546Q261 518 232 467Q203 416 203 350Q203 285 232 234Q261 183 312.50 154.50Q364 126 430 126Q500 126 556 156L556 361Z"  horiz-adv-x="771" vert-adv-y="1000"  />

      
      <glyph glyph-name="uni011E" unicode="&#x011E;" d="M556 361L704 361L704 77Q647 34 572 11Q497-12 421-12Q312-12 225 34.50Q138 81 88.50 163.50Q39 246 39 350Q39 454 88.50 536.50Q138 619 226 665.50Q314 712 424 712Q516 712 591 681Q666 650 717 591L613 495Q538 574 432 574Q365 574 313 546Q261 518 232 467Q203 416 203 350Q203 285 232 234Q261 183 312.50 154.50Q364 126 430 126Q500 126 556 156L556 361M417 749Q338 749 287 790Q236 831 233 901L331 901Q332 869 356.50 849.50Q381 830 417 830Q453 830 477.50 849.50Q502 869 503 901L601 901Q598 831 547 790Q496 749 417 749Z"  horiz-adv-x="771" vert-adv-y="1000"  />

      
      <glyph glyph-name="uni01E6" unicode="&#x01E6;" d="M556 361L704 361L704 77Q647 34 572 11Q497-12 421-12Q312-12 225 34.50Q138 81 88.50 163.50Q39 246 39 350Q39 454 88.50 536.50Q138 619 226 665.50Q314 712 424 712Q516 712 591 681Q666 650 717 591L613 495Q538 574 432 574Q365 574 313 546Q261 518 232 467Q203 416 203 350Q203 285 232 234Q261 183 312.50 154.50Q364 126 430 126Q500 126 556 156L556 361M618 901L486 757L348 757L216 901L330 901L417 826L504 901L618 901Z"  horiz-adv-x="771" vert-adv-y="1000"  />

      
      <glyph glyph-name="uni011C" unicode="&#x011C;" d="M556 361L704 361L704 77Q647 34 572 11Q497-12 421-12Q312-12 225 34.50Q138 81 88.50 163.50Q39 246 39 350Q39 454 88.50 536.50Q138 619 226 665.50Q314 712 424 712Q516 712 591 681Q666 650 717 591L613 495Q538 574 432 574Q365 574 313 546Q261 518 232 467Q203 416 203 350Q203 285 232 234Q261 183 312.50 154.50Q364 126 430 126Q500 126 556 156L556 361M504 757L417 833L330 757L216 757L348 901L486 901L618 757L504 757Z"  horiz-adv-x="771" vert-adv-y="1000"  />

      
      <glyph glyph-name="uni0122" unicode="&#x0122;" d="M556 361L704 361L704 77Q647 34 572 11Q497-12 421-12Q312-12 225 34.50Q138 81 88.50 163.50Q39 246 39 350Q39 454 88.50 536.50Q138 619 226 665.50Q314 712 424 712Q516 712 591 681Q666 650 717 591L613 495Q538 574 432 574Q365 574 313 546Q261 518 232 467Q203 416 203 350Q203 285 232 234Q261 183 312.50 154.50Q364 126 430 126Q500 126 556 156L556 361M407-73Q439-73 457.50-89.50Q476-106 476-133Q476-164 458-198L423-266L350-266L375-186Q357-180 347.50-166.50Q338-153 338-133Q338-106 356.50-89.50Q375-73 407-73Z"  horiz-adv-x="771" vert-adv-y="1000"  />

      
      <glyph glyph-name="uni0120" unicode="&#x0120;" d="M556 361L704 361L704 77Q647 34 572 11Q497-12 421-12Q312-12 225 34.50Q138 81 88.50 163.50Q39 246 39 350Q39 454 88.50 536.50Q138 619 226 665.50Q314 712 424 712Q516 712 591 681Q666 650 717 591L613 495Q538 574 432 574Q365 574 313 546Q261 518 232 467Q203 416 203 350Q203 285 232 234Q261 183 312.50 154.50Q364 126 430 126Q500 126 556 156L556 361M417 762Q380 762 356.50 786Q333 810 333 847Q333 883 356.50 907Q380 931 417 931Q454 931 477.50 907Q501 883 501 847Q501 810 477.50 786Q454 762 417 762Z"  horiz-adv-x="771" vert-adv-y="1000"  />

      
      <glyph glyph-name="uni1E20" unicode="&#x1E20;" d="M556 361L704 361L704 77Q647 34 572 11Q497-12 421-12Q312-12 225 34.50Q138 81 88.50 163.50Q39 246 39 350Q39 454 88.50 536.50Q138 619 226 665.50Q314 712 424 712Q516 712 591 681Q666 650 717 591L613 495Q538 574 432 574Q365 574 313 546Q261 518 232 467Q203 416 203 350Q203 285 232 234Q261 183 312.50 154.50Q364 126 430 126Q500 126 556 156L556 361M232 873L602 873L602 785L232 785L232 873Z"  horiz-adv-x="771" vert-adv-y="1000"  />

      
      <glyph glyph-name="uni01E4" unicode="&#x01E4;" d="M556 361L704 361L704 77Q647 34 572 11Q497-12 421-12Q312-12 225 34.50Q138 81 88.50 163.50Q39 246 39 350Q39 454 88.50 536.50Q138 619 226 665.50Q314 712 424 712Q516 712 591 681Q666 650 717 591L613 495Q538 574 432 574Q365 574 313 546Q261 518 232 467Q203 416 203 350Q203 285 232 234Q261 183 312.50 154.50Q364 126 430 126Q500 126 556 156L556 361M393.12 304.75L791.53 304.75L791.53 197.60L393.12 197.60L393.12 304.75Z"  horiz-adv-x="811" vert-adv-y="1000"  />

      
      <glyph glyph-name="uni48" unicode="&#x48;" d="M725 700L725 0L563 0L563 287L245 287L245 0L83 0L83 700L245 700L245 424L563 424L563 700L725 700Z"  horiz-adv-x="808" vert-adv-y="1000"  />

      
      <glyph glyph-name="uni0126" unicode="&#x0126;" d="M738 700L738 0L576 0L576 287L258 287L258 0L96 0L96 700L258 700L258 424L576 424L576 700L738 700M1 618L833 618L833 510L1 510L1 618Z"  horiz-adv-x="834" vert-adv-y="1000"  />

      
      <glyph glyph-name="uni1E2A" unicode="&#x1E2A;" d="M725 700L725 0L563 0L563 287L245 287L245 0L83 0L83 700L245 700L245 424L563 424L563 700L725 700M404-217Q326-217 275-177.50Q224-138 220-74L313-74Q314-104 339.50-122.50Q365-141 404-141Q443-141 468.50-122.50Q494-104 495-74L588-74Q584-138 533-177.50Q482-217 404-217Z"  horiz-adv-x="808" vert-adv-y="1000"  />

      
      <glyph glyph-name="uni021E" unicode="&#x021E;" d="M725 700L725 0L563 0L563 287L245 287L245 0L83 0L83 700L245 700L245 424L563 424L563 700L725 700M605 901L473 757L335 757L203 901L317 901L404 826L491 901L605 901Z"  horiz-adv-x="808" vert-adv-y="1000"  />

      
      <glyph glyph-name="uni0124" unicode="&#x0124;" d="M725 700L725 0L563 0L563 287L245 287L245 0L83 0L83 700L245 700L245 424L563 424L563 700L725 700M491 757L404 833L317 757L203 757L335 901L473 901L605 757L491 757Z"  horiz-adv-x="808" vert-adv-y="1000"  />

      
      <glyph glyph-name="uni1E24" unicode="&#x1E24;" d="M725 700L725 0L563 0L563 287L245 287L245 0L83 0L83 700L245 700L245 424L563 424L563 700L725 700M404-210Q374-210 354.50-191.50Q335-173 335-143Q335-113 354.50-93Q374-73 404-73Q433-73 453-93Q473-113 473-143Q473-173 453.50-191.50Q434-210 404-210Z"  horiz-adv-x="808" vert-adv-y="1000"  />

      
      <glyph glyph-name="uni49" unicode="&#x49;" d="M83 700L245 700L245 0L83 0L83 700Z"  horiz-adv-x="328" vert-adv-y="1000"  />

      
      <glyph glyph-name="uni0132" unicode="&#x0132;" d="M327-12Q250-12 181.50 8.50Q113 29 61 65L122 187Q168 156 220.50 140Q273 124 324 124Q485 124 485 307L485 700L647 700L647 315Q647 210 607.50 136.50Q568 63 496 25.50Q424-12 327-12M77 700L239 700L239 322L77 322L77 700Z"  horiz-adv-x="724" vert-adv-y="1000"  />

      
      <glyph glyph-name="unicd" unicode="&#xcd;" d="M83 700L245 700L245 0L83 0L83 700M208 901L376 901L195 757L73 757L208 901Z"  horiz-adv-x="328" vert-adv-y="1000"  />

      
      <glyph glyph-name="uni012C" unicode="&#x012C;" d="M83 700L245 700L245 0L83 0L83 700M164 749Q85 749 34 790Q-17 831-20 901L78 901Q79 869 103.50 849.50Q128 830 164 830Q200 830 224.50 849.50Q249 869 250 901L348 901Q345 831 294 790Q243 749 164 749Z"  horiz-adv-x="328" vert-adv-y="1000"  />

      
      <glyph glyph-name="unice" unicode="&#xce;" d="M83 700L245 700L245 0L83 0L83 700M251 757L164 833L77 757L-37 757L95 901L233 901L365 757L251 757Z"  horiz-adv-x="328" vert-adv-y="1000"  />

      
      <glyph glyph-name="uni0208" unicode="&#x0208;" d="M83 700L245 700L245 0L83 0L83 700M-98 901L48 901L120 757L6 757L-98 901M104 901L250 901L322 757L208 757L104 901Z"  horiz-adv-x="328" vert-adv-y="1000"  />

      
      <glyph glyph-name="unicf" unicode="&#xcf;" d="M83 700L245 700L245 0L83 0L83 700M63 762Q33 762 13 781.50Q-7 801-7 831Q-7 861 13 880.50Q33 900 63 900Q93 900 112.50 880.50Q132 861 132 831Q132 801 112.50 781.50Q93 762 63 762M265 762Q235 762 215.50 781.50Q196 801 196 831Q196 861 215.50 880.50Q235 900 265 900Q295 900 315 880.50Q335 861 335 831Q335 801 315 781.50Q295 762 265 762Z"  horiz-adv-x="328" vert-adv-y="1000"  />

      
      <glyph glyph-name="uni1E2E" unicode="&#x1E2E;" d="M83 700L245 700L245 0L83 0L83 700M66 762Q38 762 19 780.50Q0 799 0 828Q0 856 19 875Q38 894 66 894Q95 894 114 875Q133 856 133 828Q133 799 114 780.50Q95 762 66 762M262 762Q234 762 215 780.50Q196 799 196 828Q196 856 215.50 875Q235 894 262 894Q290 894 309 875Q328 856 328 828Q328 799 309 780.50Q290 762 262 762M189 1039L348 1039L191 918L78 918L189 1039Z"  horiz-adv-x="328" vert-adv-y="1000"  />

      
      <glyph glyph-name="uni0130" unicode="&#x0130;" d="M83 700L245 700L245 0L83 0L83 700M164 762Q127 762 103.50 786Q80 810 80 847Q80 883 103.50 907Q127 931 164 931Q201 931 224.50 907Q248 883 248 847Q248 810 224.50 786Q201 762 164 762Z"  horiz-adv-x="328" vert-adv-y="1000"  />

      
      <glyph glyph-name="uni1ECA" unicode="&#x1ECA;" d="M83 700L245 700L245 0L83 0L83 700M164-210Q134-210 114.50-191.50Q95-173 95-143Q95-113 114.50-93Q134-73 164-73Q193-73 213-93Q233-113 233-143Q233-173 213.50-191.50Q194-210 164-210Z"  horiz-adv-x="328" vert-adv-y="1000"  />

      
      <glyph glyph-name="unicc" unicode="&#xcc;" d="M83 700L245 700L245 0L83 0L83 700M-48 901L120 901L255 757L133 757L-48 901Z"  horiz-adv-x="328" vert-adv-y="1000"  />

      
      <glyph glyph-name="uni1EC8" unicode="&#x1EC8;" d="M83 700L245 700L245 0L83 0L83 700M145 799Q173 812 184.50 827Q196 842 196 860Q196 879 183 890.50Q170 902 149 902Q119 902 90 883L58 946Q101 980 166 980Q219 980 252.50 950.50Q286 921 286 873Q286 789 194 747L145 799Z"  horiz-adv-x="328" vert-adv-y="1000"  />

      
      <glyph glyph-name="uni020A" unicode="&#x020A;" d="M83 700L245 700L245 0L83 0L83 700M-20 757Q-17 827 34 868Q85 909 164 909Q243 909 294 868Q345 827 348 757L250 757Q249 789 224.50 808.50Q200 828 164 828Q128 828 103.50 808.50Q79 789 78 757L-20 757Z"  horiz-adv-x="328" vert-adv-y="1000"  />

      
      <glyph glyph-name="uni012A" unicode="&#x012A;" d="M83 700L245 700L245 0L83 0L83 700M14 873L314 873L314 785L14 785L14 873Z"  horiz-adv-x="328" vert-adv-y="1000"  />

      
      <glyph glyph-name="uni012E" unicode="&#x012E;" d="M83 700L245 700L245 0L83 0L83 700M202-232Q148-232 115-201.50Q82-171 82-121Q82-74 111-32.50Q140 9 197 41L245 0Q209-29 194.50-54.50Q180-80 180-106Q180-127 192-140Q204-153 222-153Q240-153 254-143L276-211Q247-232 202-232Z"  horiz-adv-x="328" vert-adv-y="1000"  />

      
      <glyph glyph-name="uni0128" unicode="&#x0128;" d="M83 700L245 700L245 0L83 0L83 700M239 754Q212 754 191.50 764.50Q171 775 146 793Q130 805 119.50 811Q109 817 99 817Q78 817 65 802.50Q52 788 51 761L-28 761Q-26 828 5.50 867.50Q37 907 89 907Q115 907 135.50 896.50Q156 886 182 867Q198 855 208.50 849Q219 843 229 843Q249 843 262.50 857.50Q276 872 277 897L356 897Q354 832 322.50 793Q291 754 239 754Z"  horiz-adv-x="328" vert-adv-y="1000"  />

      
      <glyph glyph-name="uni4a" unicode="&#x4a;" d="M212-12Q141-12 81.50 14.50Q22 41-16 90L74 198Q131 121 204 121Q303 121 303 237L303 570L57 570L57 700L464 700L464 246Q464 117 400 52.50Q336-12 212-12Z"  horiz-adv-x="541" vert-adv-y="1000"  />

      
      <glyph glyph-name="uni0134" unicode="&#x0134;" d="M212-12Q141-12 81.50 14.50Q22 41-16 90L74 198Q131 121 204 121Q303 121 303 237L303 570L57 570L57 700L464 700L464 246Q464 117 400 52.50Q336-12 212-12M348 757L261 833L174 757L60 757L192 901L330 901L462 757L348 757Z"  horiz-adv-x="541" vert-adv-y="1000"  />

      
      <glyph glyph-name="uni4b" unicode="&#x4b;" d="M338 275L244 177L244 0L83 0L83 700L244 700L244 373L554 700L734 700L444 388L751 0L562 0L338 275Z"  horiz-adv-x="740" vert-adv-y="1000"  />

      
      <glyph glyph-name="uni01E8" unicode="&#x01E8;" d="M338 275L244 177L244 0L83 0L83 700L244 700L244 373L554 700L734 700L444 388L751 0L562 0L338 275M580 901L448 757L310 757L178 901L292 901L379 826L466 901L580 901Z"  horiz-adv-x="740" vert-adv-y="1000"  />

      
      <glyph glyph-name="uni0136" unicode="&#x0136;" d="M338 275L244 177L244 0L83 0L83 700L244 700L244 373L554 700L734 700L444 388L751 0L562 0L338 275M379-73Q411-73 429.50-89.50Q448-106 448-133Q448-164 430-198L395-266L322-266L347-186Q329-180 319.50-166.50Q310-153 310-133Q310-106 328.50-89.50Q347-73 379-73Z"  horiz-adv-x="740" vert-adv-y="1000"  />

      
      <glyph glyph-name="uni4c" unicode="&#x4c;" d="M83 700L245 700L245 132L596 132L596 0L83 0L83 700Z"  horiz-adv-x="604" vert-adv-y="1000"  />

      
      <glyph glyph-name="uni01C7" unicode="&#x01C7;" d="M83 700L245 700L245 132L596 132L596 0L83 0L83 700M816-12Q745-12 685.50 14.50Q626 41 588 90L678 198Q735 121 808 121Q907 121 907 237L907 570L661 570L661 700L1068 700L1068 246Q1068 117 1004 52.50Q940-12 816-12Z"  horiz-adv-x="1145" vert-adv-y="1000"  />

      
      <glyph glyph-name="uni0139" unicode="&#x0139;" d="M83 700L245 700L245 132L596 132L596 0L83 0L83 700M208 901L376 901L195 757L73 757L208 901Z"  horiz-adv-x="604" vert-adv-y="1000"  />

      
      <glyph glyph-name="uni013D" unicode="&#x013D;" d="M83 700L245 700L245 132L596 132L596 0L83 0L83 700M431 741L548 741L528 540L431 540L431 741Z"  horiz-adv-x="604" vert-adv-y="1000"  />

      
      <glyph glyph-name="uni013B" unicode="&#x013B;" d="M83 700L245 700L245 132L596 132L596 0L83 0L83 700M351-73Q383-73 401.50-89.50Q420-106 420-133Q420-164 402-198L367-266L294-266L319-186Q301-180 291.50-166.50Q282-153 282-133Q282-106 300.50-89.50Q319-73 351-73Z"  horiz-adv-x="604" vert-adv-y="1000"  />

      
      <glyph glyph-name="uni013F" unicode="&#x013F;" d="M83 700L245 700L245 132L596 132L596 0L83 0L83 700M467 329Q430 329 406 353.50Q382 378 382 416Q382 454 406 478.50Q430 503 467 503Q504 503 528 478.50Q552 454 552 416Q552 378 528 353.50Q504 329 467 329Z"  horiz-adv-x="604" vert-adv-y="1000"  />

      
      <glyph glyph-name="uni1E36" unicode="&#x1E36;" d="M83 700L245 700L245 132L596 132L596 0L83 0L83 700M351-210Q321-210 301.50-191.50Q282-173 282-143Q282-113 301.50-93Q321-73 351-73Q380-73 400-93Q420-113 420-143Q420-173 400.50-191.50Q381-210 351-210Z"  horiz-adv-x="604" vert-adv-y="1000"  />

      
      <glyph glyph-name="uni01C8" unicode="&#x01C8;" d="M83 700L245 700L245 132L596 132L596 0L83 0L83 700M636-202Q554-202 511-172L553-59Q580-78 619-78Q649-78 666-58.50Q683-39 683 0L683 538L839 538L839 1Q839-93 785.50-147.50Q732-202 636-202M761 613Q718 613 691 638Q664 663 664 700Q664 737 691 762Q718 787 761 787Q804 787 831 763Q858 739 858 703Q858 664 831 638.50Q804 613 761 613Z"  horiz-adv-x="911" vert-adv-y="1000"  />

      
      <glyph glyph-name="uni1E3A" unicode="&#x1E3A;" d="M83 700L245 700L245 132L596 132L596 0L83 0L83 700M166-95L536-95L536-182L166-182L166-95Z"  horiz-adv-x="604" vert-adv-y="1000"  />

      
      <glyph glyph-name="uni0141" unicode="&#x0141;" d="M96 700L258 700L258 132L609 132L609 0L96 0L96 700M-14 304L362 586L420 508L44 226L-14 304Z"  horiz-adv-x="617" vert-adv-y="1000"  />

      
      <glyph glyph-name="uni4d" unicode="&#x4d;" d="M720 0L719 420L513 74L440 74L235 411L235 0L83 0L83 700L217 700L479 265L737 700L870 700L872 0L720 0Z"  horiz-adv-x="955" vert-adv-y="1000"  />

      
      <glyph glyph-name="uni1E42" unicode="&#x1E42;" d="M720 0L719 420L513 74L440 74L235 411L235 0L83 0L83 700L217 700L479 265L737 700L870 700L872 0L720 0M477-210Q447-210 427.50-191.50Q408-173 408-143Q408-113 427.50-93Q447-73 477-73Q506-73 526-93Q546-113 546-143Q546-173 526.50-191.50Q507-210 477-210Z"  horiz-adv-x="955" vert-adv-y="1000"  />

      
      <glyph glyph-name="uni4e" unicode="&#x4e;" d="M725 700L725 0L592 0L243 425L243 0L83 0L83 700L217 700L565 275L565 700L725 700Z"  horiz-adv-x="808" vert-adv-y="1000"  />

      
      <glyph glyph-name="uni01CA" unicode="&#x01CA;" d="M725 700L725 0L592 0L243 425L243 0L83 0L83 700L217 700L565 275L565 700L725 700M1020-12Q949-12 889.50 14.50Q830 41 792 90L882 198Q939 121 1012 121Q1111 121 1111 237L1111 570L865 570L865 700L1272 700L1272 246Q1272 117 1208 52.50Q1144-12 1020-12Z"  horiz-adv-x="1349" vert-adv-y="1000"  />

      
      <glyph glyph-name="uni0143" unicode="&#x0143;" d="M725 700L725 0L592 0L243 425L243 0L83 0L83 700L217 700L565 275L565 700L725 700M448 901L616 901L435 757L313 757L448 901Z"  horiz-adv-x="808" vert-adv-y="1000"  />

      
      <glyph glyph-name="uni0147" unicode="&#x0147;" d="M725 700L725 0L592 0L243 425L243 0L83 0L83 700L217 700L565 275L565 700L725 700M605 901L473 757L335 757L203 901L317 901L404 826L491 901L605 901Z"  horiz-adv-x="808" vert-adv-y="1000"  />

      
      <glyph glyph-name="uni0145" unicode="&#x0145;" d="M725 700L725 0L592 0L243 425L243 0L83 0L83 700L217 700L565 275L565 700L725 700M404-73Q436-73 454.50-89.50Q473-106 473-133Q473-164 455-198L420-266L347-266L372-186Q354-180 344.50-166.50Q335-153 335-133Q335-106 353.50-89.50Q372-73 404-73Z"  horiz-adv-x="808" vert-adv-y="1000"  />

      
      <glyph glyph-name="uni1E44" unicode="&#x1E44;" d="M725 700L725 0L592 0L243 425L243 0L83 0L83 700L217 700L565 275L565 700L725 700M404 762Q367 762 343.50 786Q320 810 320 847Q320 883 343.50 907Q367 931 404 931Q441 931 464.50 907Q488 883 488 847Q488 810 464.50 786Q441 762 404 762Z"  horiz-adv-x="808" vert-adv-y="1000"  />

      
      <glyph glyph-name="uni1E46" unicode="&#x1E46;" d="M725 700L725 0L592 0L243 425L243 0L83 0L83 700L217 700L565 275L565 700L725 700M404-210Q374-210 354.50-191.50Q335-173 335-143Q335-113 354.50-93Q374-73 404-73Q433-73 453-93Q473-113 473-143Q473-173 453.50-191.50Q434-210 404-210Z"  horiz-adv-x="808" vert-adv-y="1000"  />

      
      <glyph glyph-name="uni014A" unicode="&#x014A;" d="M725 700L725 71Q725-68 662.50-135Q600-202 476-202Q421-202 373-185.50Q325-169 289-136L365-23Q408-69 468-69Q559-69 565 33L243 425L243 0L83 0L83 700L217 700L565 275L565 700L725 700Z"  horiz-adv-x="808" vert-adv-y="1000"  />

      
      <glyph glyph-name="uni01CB" unicode="&#x01CB;" d="M725 700L725 0L592 0L243 425L243 0L83 0L83 700L217 700L565 275L565 700L725 700M840-202Q758-202 715-172L757-59Q784-78 823-78Q853-78 870-58.50Q887-39 887 0L887 538L1043 538L1043 1Q1043-93 989.50-147.50Q936-202 840-202M965 613Q922 613 895 638Q868 663 868 700Q868 737 895 762Q922 787 965 787Q1008 787 1035 763Q1062 739 1062 703Q1062 664 1035 638.50Q1008 613 965 613Z"  horiz-adv-x="1115" vert-adv-y="1000"  />

      
      <glyph glyph-name="uni1E48" unicode="&#x1E48;" d="M725 700L725 0L592 0L243 425L243 0L83 0L83 700L217 700L565 275L565 700L725 700M219-95L589-95L589-182L219-182L219-95Z"  horiz-adv-x="808" vert-adv-y="1000"  />

      
      <glyph glyph-name="unid1" unicode="&#xd1;" d="M725 700L725 0L592 0L243 425L243 0L83 0L83 700L217 700L565 275L565 700L725 700M479 754Q452 754 431.50 764.50Q411 775 386 793Q370 805 359.50 811Q349 817 339 817Q318 817 305 802.50Q292 788 291 761L212 761Q214 828 245.50 867.50Q277 907 329 907Q355 907 375.50 896.50Q396 886 422 867Q438 855 448.50 849Q459 843 469 843Q489 843 502.50 857.50Q516 872 517 897L596 897Q594 832 562.50 793Q531 754 479 754Z"  horiz-adv-x="808" vert-adv-y="1000"  />

      
      <glyph glyph-name="uni4f" unicode="&#x4f;" d="M422-12Q313-12 225.50 35Q138 82 88.50 164.50Q39 247 39 350Q39 453 88.50 535.50Q138 618 225.50 665Q313 712 422 712Q531 712 618 665Q705 618 755 535.50Q805 453 805 350Q805 247 755 164.50Q705 82 618 35Q531-12 422-12M422 126Q484 126 534 154.50Q584 183 612.50 234Q641 285 641 350Q641 415 612.50 466Q584 517 534 545.50Q484 574 422 574Q360 574 310 545.50Q260 517 231.50 466Q203 415 203 350Q203 285 231.50 234Q260 183 310 154.50Q360 126 422 126Z"  horiz-adv-x="844" vert-adv-y="1000"  />

      
      <glyph glyph-name="unid3" unicode="&#xd3;" d="M422-12Q313-12 225.50 35Q138 82 88.50 164.50Q39 247 39 350Q39 453 88.50 535.50Q138 618 225.50 665Q313 712 422 712Q531 712 618 665Q705 618 755 535.50Q805 453 805 350Q805 247 755 164.50Q705 82 618 35Q531-12 422-12M422 126Q484 126 534 154.50Q584 183 612.50 234Q641 285 641 350Q641 415 612.50 466Q584 517 534 545.50Q484 574 422 574Q360 574 310 545.50Q260 517 231.50 466Q203 415 203 350Q203 285 231.50 234Q260 183 310 154.50Q360 126 422 126M466 901L634 901L453 757L331 757L466 901Z"  horiz-adv-x="844" vert-adv-y="1000"  />

      
      <glyph glyph-name="uni014E" unicode="&#x014E;" d="M422-12Q313-12 225.50 35Q138 82 88.50 164.50Q39 247 39 350Q39 453 88.50 535.50Q138 618 225.50 665Q313 712 422 712Q531 712 618 665Q705 618 755 535.50Q805 453 805 350Q805 247 755 164.50Q705 82 618 35Q531-12 422-12M422 126Q484 126 534 154.50Q584 183 612.50 234Q641 285 641 350Q641 415 612.50 466Q584 517 534 545.50Q484 574 422 574Q360 574 310 545.50Q260 517 231.50 466Q203 415 203 350Q203 285 231.50 234Q260 183 310 154.50Q360 126 422 126M422 749Q343 749 292 790Q241 831 238 901L336 901Q337 869 361.50 849.50Q386 830 422 830Q458 830 482.50 849.50Q507 869 508 901L606 901Q603 831 552 790Q501 749 422 749Z"  horiz-adv-x="844" vert-adv-y="1000"  />

      
      <glyph glyph-name="unid4" unicode="&#xd4;" d="M422-12Q313-12 225.50 35Q138 82 88.50 164.50Q39 247 39 350Q39 453 88.50 535.50Q138 618 225.50 665Q313 712 422 712Q531 712 618 665Q705 618 755 535.50Q805 453 805 350Q805 247 755 164.50Q705 82 618 35Q531-12 422-12M422 126Q484 126 534 154.50Q584 183 612.50 234Q641 285 641 350Q641 415 612.50 466Q584 517 534 545.50Q484 574 422 574Q360 574 310 545.50Q260 517 231.50 466Q203 415 203 350Q203 285 231.50 234Q260 183 310 154.50Q360 126 422 126M509 757L422 833L335 757L221 757L353 901L491 901L623 757L509 757Z"  horiz-adv-x="844" vert-adv-y="1000"  />

      
      <glyph glyph-name="uni1ED0" unicode="&#x1ED0;" d="M422-12Q313-12 225.50 35Q138 82 88.50 164.50Q39 247 39 350Q39 453 88.50 535.50Q138 618 225.50 665Q313 712 422 712Q531 712 618 665Q705 618 755 535.50Q805 453 805 350Q805 247 755 164.50Q705 82 618 35Q531-12 422-12M422 126Q484 126 534 154.50Q584 183 612.50 234Q641 285 641 350Q641 415 612.50 466Q584 517 534 545.50Q484 574 422 574Q360 574 310 545.50Q260 517 231.50 466Q203 415 203 350Q203 285 231.50 234Q260 183 310 154.50Q360 126 422 126M508 757L422 814L336 757L221 757L354 871L490 871L623 757L508 757M653 974L812 974L655 853L542 853L653 974Z"  horiz-adv-x="844" vert-adv-y="1000"  />

      
      <glyph glyph-name="uni1ED8" unicode="&#x1ED8;" d="M422-12Q313-12 225.50 35Q138 82 88.50 164.50Q39 247 39 350Q39 453 88.50 535.50Q138 618 225.50 665Q313 712 422 712Q531 712 618 665Q705 618 755 535.50Q805 453 805 350Q805 247 755 164.50Q705 82 618 35Q531-12 422-12M422 126Q484 126 534 154.50Q584 183 612.50 234Q641 285 641 350Q641 415 612.50 466Q584 517 534 545.50Q484 574 422 574Q360 574 310 545.50Q260 517 231.50 466Q203 415 203 350Q203 285 231.50 234Q260 183 310 154.50Q360 126 422 126M422-210Q392-210 372.50-191.50Q353-173 353-143Q353-113 372.50-93Q392-73 422-73Q451-73 471-93Q491-113 491-143Q491-173 471.50-191.50Q452-210 422-210M509 757L422 833L335 757L221 757L353 901L491 901L623 757L509 757Z"  horiz-adv-x="844" vert-adv-y="1000"  />

      
      <glyph glyph-name="uni1ED2" unicode="&#x1ED2;" d="M422-12Q313-12 225.50 35Q138 82 88.50 164.50Q39 247 39 350Q39 453 88.50 535.50Q138 618 225.50 665Q313 712 422 712Q531 712 618 665Q705 618 755 535.50Q805 453 805 350Q805 247 755 164.50Q705 82 618 35Q531-12 422-12M422 126Q484 126 534 154.50Q584 183 612.50 234Q641 285 641 350Q641 415 612.50 466Q584 517 534 545.50Q484 574 422 574Q360 574 310 545.50Q260 517 231.50 466Q203 415 203 350Q203 285 231.50 234Q260 183 310 154.50Q360 126 422 126M508 757L422 814L336 757L221 757L354 871L490 871L623 757L508 757M445 974L604 974L714 853L602 853L445 974Z"  horiz-adv-x="844" vert-adv-y="1000"  />

      
      <glyph glyph-name="uni1ED4" unicode="&#x1ED4;" d="M422-12Q313-12 225.50 35Q138 82 88.50 164.50Q39 247 39 350Q39 453 88.50 535.50Q138 618 225.50 665Q313 712 422 712Q531 712 618 665Q705 618 755 535.50Q805 453 805 350Q805 247 755 164.50Q705 82 618 35Q531-12 422-12M422 126Q484 126 534 154.50Q584 183 612.50 234Q641 285 641 350Q641 415 612.50 466Q584 517 534 545.50Q484 574 422 574Q360 574 310 545.50Q260 517 231.50 466Q203 415 203 350Q203 285 231.50 234Q260 183 310 154.50Q360 126 422 126M508 757L422 814L336 757L221 757L354 871L490 871L623 757L508 757M562 871Q599 889 599 913Q599 926 589.50 934Q580 942 565 942Q544 942 521 930L495 978Q529 1000 578 1000Q620 1000 645 978.50Q670 957 670 921Q670 892 650.50 869Q631 846 600 834L562 871Z"  horiz-adv-x="844" vert-adv-y="1000"  />

      
      <glyph glyph-name="uni1ED6" unicode="&#x1ED6;" d="M422-12Q313-12 225.50 35Q138 82 88.50 164.50Q39 247 39 350Q39 453 88.50 535.50Q138 618 225.50 665Q313 712 422 712Q531 712 618 665Q705 618 755 535.50Q805 453 805 350Q805 247 755 164.50Q705 82 618 35Q531-12 422-12M422 126Q484 126 534 154.50Q584 183 612.50 234Q641 285 641 350Q641 415 612.50 466Q584 517 534 545.50Q484 574 422 574Q360 574 310 545.50Q260 517 231.50 466Q203 415 203 350Q203 285 231.50 234Q260 183 310 154.50Q360 126 422 126M508 757L422 814L336 757L221 757L354 871L490 871L623 757L508 757M496 906Q469 906 448 914.50Q427 923 402 939Q390 946 378.50 952Q367 958 358 958Q338 958 327 946Q316 934 314 912L234 912Q235 972 265.50 1004.50Q296 1037 350 1037Q376 1037 394.50 1029Q413 1021 441 1005Q457 995 467.50 990Q478 985 488 985Q508 985 519 997.50Q530 1010 532 1030L610 1030Q609 972 579 939Q549 906 496 906Z"  horiz-adv-x="844" vert-adv-y="1000"  />

      
      <glyph glyph-name="uni020C" unicode="&#x020C;" d="M422-12Q313-12 225.50 35Q138 82 88.50 164.50Q39 247 39 350Q39 453 88.50 535.50Q138 618 225.50 665Q313 712 422 712Q531 712 618 665Q705 618 755 535.50Q805 453 805 350Q805 247 755 164.50Q705 82 618 35Q531-12 422-12M422 126Q484 126 534 154.50Q584 183 612.50 234Q641 285 641 350Q641 415 612.50 466Q584 517 534 545.50Q484 574 422 574Q360 574 310 545.50Q260 517 231.50 466Q203 415 203 350Q203 285 231.50 234Q260 183 310 154.50Q360 126 422 126M160 901L306 901L378 757L264 757L160 901M362 901L508 901L580 757L466 757L362 901Z"  horiz-adv-x="844" vert-adv-y="1000"  />

      
      <glyph glyph-name="unid6" unicode="&#xd6;" d="M422-12Q313-12 225.50 35Q138 82 88.50 164.50Q39 247 39 350Q39 453 88.50 535.50Q138 618 225.50 665Q313 712 422 712Q531 712 618 665Q705 618 755 535.50Q805 453 805 350Q805 247 755 164.50Q705 82 618 35Q531-12 422-12M422 126Q484 126 534 154.50Q584 183 612.50 234Q641 285 641 350Q641 415 612.50 466Q584 517 534 545.50Q484 574 422 574Q360 574 310 545.50Q260 517 231.50 466Q203 415 203 350Q203 285 231.50 234Q260 183 310 154.50Q360 126 422 126M321 762Q291 762 271 781.50Q251 801 251 831Q251 861 271 880.50Q291 900 321 900Q351 900 370.50 880.50Q390 861 390 831Q390 801 370.50 781.50Q351 762 321 762M523 762Q493 762 473.50 781.50Q454 801 454 831Q454 861 473.50 880.50Q493 900 523 900Q553 900 573 880.50Q593 861 593 831Q593 801 573 781.50Q553 762 523 762Z"  horiz-adv-x="844" vert-adv-y="1000"  />

      
      <glyph glyph-name="uni022A" unicode="&#x022A;" d="M422-12Q313-12 225.50 35Q138 82 88.50 164.50Q39 247 39 350Q39 453 88.50 535.50Q138 618 225.50 665Q313 712 422 712Q531 712 618 665Q705 618 755 535.50Q805 453 805 350Q805 247 755 164.50Q705 82 618 35Q531-12 422-12M422 126Q484 126 534 154.50Q584 183 612.50 234Q641 285 641 350Q641 415 612.50 466Q584 517 534 545.50Q484 574 422 574Q360 574 310 545.50Q260 517 231.50 466Q203 415 203 350Q203 285 231.50 234Q260 183 310 154.50Q360 126 422 126M324 762Q296 762 277 780.50Q258 799 258 828Q258 856 277 875Q296 894 324 894Q353 894 372 875Q391 856 391 828Q391 799 372 780.50Q353 762 324 762M520 762Q492 762 473 780.50Q454 799 454 828Q454 856 473.50 875Q493 894 520 894Q548 894 567 875Q586 856 586 828Q586 799 567 780.50Q548 762 520 762M237 1017L607 1017L607 934L237 934L237 1017Z"  horiz-adv-x="844" vert-adv-y="1000"  />

      
      <glyph glyph-name="uni0230" unicode="&#x0230;" d="M422-12Q313-12 225.50 35Q138 82 88.50 164.50Q39 247 39 350Q39 453 88.50 535.50Q138 618 225.50 665Q313 712 422 712Q531 712 618 665Q705 618 755 535.50Q805 453 805 350Q805 247 755 164.50Q705 82 618 35Q531-12 422-12M422 126Q484 126 534 154.50Q584 183 612.50 234Q641 285 641 350Q641 415 612.50 466Q584 517 534 545.50Q484 574 422 574Q360 574 310 545.50Q260 517 231.50 466Q203 415 203 350Q203 285 231.50 234Q260 183 310 154.50Q360 126 422 126M422 761Q392 761 372.50 780Q353 799 353 829Q353 859 372.50 878.50Q392 898 422 898Q452 898 471.50 878.50Q491 859 491 829Q491 799 471.50 780Q452 761 422 761M237 1024L607 1024L607 941L237 941L237 1024Z"  horiz-adv-x="844" vert-adv-y="1000"  />

      
      <glyph glyph-name="uni1ECC" unicode="&#x1ECC;" d="M422-12Q313-12 225.50 35Q138 82 88.50 164.50Q39 247 39 350Q39 453 88.50 535.50Q138 618 225.50 665Q313 712 422 712Q531 712 618 665Q705 618 755 535.50Q805 453 805 350Q805 247 755 164.50Q705 82 618 35Q531-12 422-12M422 126Q484 126 534 154.50Q584 183 612.50 234Q641 285 641 350Q641 415 612.50 466Q584 517 534 545.50Q484 574 422 574Q360 574 310 545.50Q260 517 231.50 466Q203 415 203 350Q203 285 231.50 234Q260 183 310 154.50Q360 126 422 126M422-210Q392-210 372.50-191.50Q353-173 353-143Q353-113 372.50-93Q392-73 422-73Q451-73 471-93Q491-113 491-143Q491-173 471.50-191.50Q452-210 422-210Z"  horiz-adv-x="844" vert-adv-y="1000"  />

      
      <glyph glyph-name="unid2" unicode="&#xd2;" d="M422-12Q313-12 225.50 35Q138 82 88.50 164.50Q39 247 39 350Q39 453 88.50 535.50Q138 618 225.50 665Q313 712 422 712Q531 712 618 665Q705 618 755 535.50Q805 453 805 350Q805 247 755 164.50Q705 82 618 35Q531-12 422-12M422 126Q484 126 534 154.50Q584 183 612.50 234Q641 285 641 350Q641 415 612.50 466Q584 517 534 545.50Q484 574 422 574Q360 574 310 545.50Q260 517 231.50 466Q203 415 203 350Q203 285 231.50 234Q260 183 310 154.50Q360 126 422 126M210 901L378 901L513 757L391 757L210 901Z"  horiz-adv-x="844" vert-adv-y="1000"  />

      
      <glyph glyph-name="uni1ECE" unicode="&#x1ECE;" d="M422-12Q313-12 225.50 35Q138 82 88.50 164.50Q39 247 39 350Q39 453 88.50 535.50Q138 618 225.50 665Q313 712 422 712Q531 712 618 665Q705 618 755 535.50Q805 453 805 350Q805 247 755 164.50Q705 82 618 35Q531-12 422-12M422 126Q484 126 534 154.50Q584 183 612.50 234Q641 285 641 350Q641 415 612.50 466Q584 517 534 545.50Q484 574 422 574Q360 574 310 545.50Q260 517 231.50 466Q203 415 203 350Q203 285 231.50 234Q260 183 310 154.50Q360 126 422 126M403 799Q431 812 442.50 827Q454 842 454 860Q454 879 441 890.50Q428 902 407 902Q377 902 348 883L316 946Q359 980 424 980Q477 980 510.50 950.50Q544 921 544 873Q544 789 452 747L403 799Z"  horiz-adv-x="844" vert-adv-y="1000"  />

      
      <glyph glyph-name="uni01A0" unicode="&#x01A0;" d="M687 614Q742 567 773.50 498.50Q805 430 805 350Q805 247 755 164.50Q705 82 618 35Q531-12 422-12Q313-12 225.50 35Q138 82 88.50 164.50Q39 247 39 350Q39 453 89 535.50Q139 618 228 665Q317 712 429 712Q473 712 539 704Q591 698 612 698Q651 698 672.50 715Q694 732 694 764Q694 795 674 824L766 858Q798 813 798 758Q798 703 769 666Q740 629 687 614M422 126Q484 126 534 154.50Q584 183 612.50 234Q641 285 641 350Q641 415 612.50 466Q584 517 534 545.50Q484 574 422 574Q360 574 310 545.50Q260 517 231.50 466Q203 415 203 350Q203 285 231.50 234Q260 183 310 154.50Q360 126 422 126Z"  horiz-adv-x="844" vert-adv-y="1000"  />

      
      <glyph glyph-name="uni1EDA" unicode="&#x1EDA;" d="M687 614Q742 567 773.50 498.50Q805 430 805 350Q805 247 755 164.50Q705 82 618 35Q531-12 422-12Q313-12 225.50 35Q138 82 88.50 164.50Q39 247 39 350Q39 453 89 535.50Q139 618 228 665Q317 712 429 712Q473 712 539 704Q591 698 612 698Q651 698 672.50 715Q694 732 694 764Q694 795 674 824L766 858Q798 813 798 758Q798 703 769 666Q740 629 687 614M422 126Q484 126 534 154.50Q584 183 612.50 234Q641 285 641 350Q641 415 612.50 466Q584 517 534 545.50Q484 574 422 574Q360 574 310 545.50Q260 517 231.50 466Q203 415 203 350Q203 285 231.50 234Q260 183 310 154.50Q360 126 422 126M466 901L634 901L453 757L331 757L466 901Z"  horiz-adv-x="844" vert-adv-y="1000"  />

      
      <glyph glyph-name="uni1EE2" unicode="&#x1EE2;" d="M687 614Q742 567 773.50 498.50Q805 430 805 350Q805 247 755 164.50Q705 82 618 35Q531-12 422-12Q313-12 225.50 35Q138 82 88.50 164.50Q39 247 39 350Q39 453 89 535.50Q139 618 228 665Q317 712 429 712Q473 712 539 704Q591 698 612 698Q651 698 672.50 715Q694 732 694 764Q694 795 674 824L766 858Q798 813 798 758Q798 703 769 666Q740 629 687 614M422 126Q484 126 534 154.50Q584 183 612.50 234Q641 285 641 350Q641 415 612.50 466Q584 517 534 545.50Q484 574 422 574Q360 574 310 545.50Q260 517 231.50 466Q203 415 203 350Q203 285 231.50 234Q260 183 310 154.50Q360 126 422 126M422-210Q392-210 372.50-191.50Q353-173 353-143Q353-113 372.50-93Q392-73 422-73Q451-73 471-93Q491-113 491-143Q491-173 471.50-191.50Q452-210 422-210Z"  horiz-adv-x="844" vert-adv-y="1000"  />

      
      <glyph glyph-name="uni1EDC" unicode="&#x1EDC;" d="M687 614Q742 567 773.50 498.50Q805 430 805 350Q805 247 755 164.50Q705 82 618 35Q531-12 422-12Q313-12 225.50 35Q138 82 88.50 164.50Q39 247 39 350Q39 453 89 535.50Q139 618 228 665Q317 712 429 712Q473 712 539 704Q591 698 612 698Q651 698 672.50 715Q694 732 694 764Q694 795 674 824L766 858Q798 813 798 758Q798 703 769 666Q740 629 687 614M422 126Q484 126 534 154.50Q584 183 612.50 234Q641 285 641 350Q641 415 612.50 466Q584 517 534 545.50Q484 574 422 574Q360 574 310 545.50Q260 517 231.50 466Q203 415 203 350Q203 285 231.50 234Q260 183 310 154.50Q360 126 422 126M210 901L378 901L513 757L391 757L210 901Z"  horiz-adv-x="844" vert-adv-y="1000"  />

      
      <glyph glyph-name="uni1EDE" unicode="&#x1EDE;" d="M687 614Q742 567 773.50 498.50Q805 430 805 350Q805 247 755 164.50Q705 82 618 35Q531-12 422-12Q313-12 225.50 35Q138 82 88.50 164.50Q39 247 39 350Q39 453 89 535.50Q139 618 228 665Q317 712 429 712Q473 712 539 704Q591 698 612 698Q651 698 672.50 715Q694 732 694 764Q694 795 674 824L766 858Q798 813 798 758Q798 703 769 666Q740 629 687 614M422 126Q484 126 534 154.50Q584 183 612.50 234Q641 285 641 350Q641 415 612.50 466Q584 517 534 545.50Q484 574 422 574Q360 574 310 545.50Q260 517 231.50 466Q203 415 203 350Q203 285 231.50 234Q260 183 310 154.50Q360 126 422 126M403 799Q431 812 442.50 827Q454 842 454 860Q454 879 441 890.50Q428 902 407 902Q377 902 348 883L316 946Q359 980 424 980Q477 980 510.50 950.50Q544 921 544 873Q544 789 452 747L403 799Z"  horiz-adv-x="844" vert-adv-y="1000"  />

      
      <glyph glyph-name="uni1EE0" unicode="&#x1EE0;" d="M687 614Q742 567 773.50 498.50Q805 430 805 350Q805 247 755 164.50Q705 82 618 35Q531-12 422-12Q313-12 225.50 35Q138 82 88.50 164.50Q39 247 39 350Q39 453 89 535.50Q139 618 228 665Q317 712 429 712Q473 712 539 704Q591 698 612 698Q651 698 672.50 715Q694 732 694 764Q694 795 674 824L766 858Q798 813 798 758Q798 703 769 666Q740 629 687 614M422 126Q484 126 534 154.50Q584 183 612.50 234Q641 285 641 350Q641 415 612.50 466Q584 517 534 545.50Q484 574 422 574Q360 574 310 545.50Q260 517 231.50 466Q203 415 203 350Q203 285 231.50 234Q260 183 310 154.50Q360 126 422 126M497 754Q470 754 449.50 764.50Q429 775 404 793Q388 805 377.50 811Q367 817 357 817Q336 817 323 802.50Q310 788 309 761L230 761Q232 828 263.50 867.50Q295 907 347 907Q373 907 393.50 896.50Q414 886 440 867Q456 855 466.50 849Q477 843 487 843Q507 843 520.50 857.50Q534 872 535 897L614 897Q612 832 580.50 793Q549 754 497 754Z"  horiz-adv-x="844" vert-adv-y="1000"  />

      
      <glyph glyph-name="uni0150" unicode="&#x0150;" d="M422-12Q313-12 225.50 35Q138 82 88.50 164.50Q39 247 39 350Q39 453 88.50 535.50Q138 618 225.50 665Q313 712 422 712Q531 712 618 665Q705 618 755 535.50Q805 453 805 350Q805 247 755 164.50Q705 82 618 35Q531-12 422-12M422 126Q484 126 534 154.50Q584 183 612.50 234Q641 285 641 350Q641 415 612.50 466Q584 517 534 545.50Q484 574 422 574Q360 574 310 545.50Q260 517 231.50 466Q203 415 203 350Q203 285 231.50 234Q260 183 310 154.50Q360 126 422 126M336 901L482 901L378 757L264 757L336 901M538 901L684 901L580 757L466 757L538 901Z"  horiz-adv-x="844" vert-adv-y="1000"  />

      
      <glyph glyph-name="uni020E" unicode="&#x020E;" d="M422-12Q313-12 225.50 35Q138 82 88.50 164.50Q39 247 39 350Q39 453 88.50 535.50Q138 618 225.50 665Q313 712 422 712Q531 712 618 665Q705 618 755 535.50Q805 453 805 350Q805 247 755 164.50Q705 82 618 35Q531-12 422-12M422 126Q484 126 534 154.50Q584 183 612.50 234Q641 285 641 350Q641 415 612.50 466Q584 517 534 545.50Q484 574 422 574Q360 574 310 545.50Q260 517 231.50 466Q203 415 203 350Q203 285 231.50 234Q260 183 310 154.50Q360 126 422 126M238 757Q241 827 292 868Q343 909 422 909Q501 909 552 868Q603 827 606 757L508 757Q507 789 482.50 808.50Q458 828 422 828Q386 828 361.50 808.50Q337 789 336 757L238 757Z"  horiz-adv-x="844" vert-adv-y="1000"  />

      
      <glyph glyph-name="uni014C" unicode="&#x014C;" d="M422-12Q313-12 225.50 35Q138 82 88.50 164.50Q39 247 39 350Q39 453 88.50 535.50Q138 618 225.50 665Q313 712 422 712Q531 712 618 665Q705 618 755 535.50Q805 453 805 350Q805 247 755 164.50Q705 82 618 35Q531-12 422-12M422 126Q484 126 534 154.50Q584 183 612.50 234Q641 285 641 350Q641 415 612.50 466Q584 517 534 545.50Q484 574 422 574Q360 574 310 545.50Q260 517 231.50 466Q203 415 203 350Q203 285 231.50 234Q260 183 310 154.50Q360 126 422 126M237 873L607 873L607 785L237 785L237 873Z"  horiz-adv-x="844" vert-adv-y="1000"  />

      
      <glyph glyph-name="uni1E52" unicode="&#x1E52;" d="M422-12Q313-12 225.50 35Q138 82 88.50 164.50Q39 247 39 350Q39 453 88.50 535.50Q138 618 225.50 665Q313 712 422 712Q531 712 618 665Q705 618 755 535.50Q805 453 805 350Q805 247 755 164.50Q705 82 618 35Q531-12 422-12M422 126Q484 126 534 154.50Q584 183 612.50 234Q641 285 641 350Q641 415 612.50 466Q584 517 534 545.50Q484 574 422 574Q360 574 310 545.50Q260 517 231.50 466Q203 415 203 350Q203 285 231.50 234Q260 183 310 154.50Q360 126 422 126M237 856L607 856L607 773L237 773L237 856M447 1039L606 1039L449 918L336 918L447 1039Z"  horiz-adv-x="844" vert-adv-y="1000"  />

      
      <glyph glyph-name="uni1E50" unicode="&#x1E50;" d="M422-12Q313-12 225.50 35Q138 82 88.50 164.50Q39 247 39 350Q39 453 88.50 535.50Q138 618 225.50 665Q313 712 422 712Q531 712 618 665Q705 618 755 535.50Q805 453 805 350Q805 247 755 164.50Q705 82 618 35Q531-12 422-12M422 126Q484 126 534 154.50Q584 183 612.50 234Q641 285 641 350Q641 415 612.50 466Q584 517 534 545.50Q484 574 422 574Q360 574 310 545.50Q260 517 231.50 466Q203 415 203 350Q203 285 231.50 234Q260 183 310 154.50Q360 126 422 126M237 856L607 856L607 773L237 773L237 856M239 1039L398 1039L508 918L396 918L239 1039Z"  horiz-adv-x="844" vert-adv-y="1000"  />

      
      <glyph glyph-name="uni01EA" unicode="&#x01EA;" d="M542 6Q473-15 438-44.50Q403-74 403-107Q403-128 418.50-140.50Q434-153 461-153Q494-153 521-138L544-209Q525-219 497.50-225.50Q470-232 443-232Q378-232 341.50-201.50Q305-171 305-120Q305-56 365-8Q270 4 196 53Q122 102 80.50 179Q39 256 39 350Q39 453 89 535.50Q139 618 226 665Q313 712 422 712Q531 712 618 665Q705 618 755 535.50Q805 453 805 350Q805 265 770.50 194.50Q736 124 676.50 76Q617 28 542 6M203 350Q203 285 231.50 234Q260 183 310 154.50Q360 126 422 126Q484 126 534 154.50Q584 183 612.50 234Q641 285 641 350Q641 415 612.50 466Q584 517 534 545.50Q484 574 422 574Q360 574 310 545.50Q260 517 231.50 466Q203 415 203 350Z"  horiz-adv-x="844" vert-adv-y="1000"  />

      
      <glyph glyph-name="unid8" unicode="&#xd8;" d="M422-12Q313-12 225.50 35Q138 82 88.50 164.50Q39 247 39 350Q39 453 88.50 535.50Q138 618 225.50 665Q313 712 422 712Q531 712 618 665Q705 618 755 535.50Q805 453 805 350Q805 247 755 164.50Q705 82 618 35Q531-12 422-12M422 126Q484 126 534 154.50Q584 183 612.50 234Q641 285 641 350Q641 415 612.50 466Q584 517 534 545.50Q484 574 422 574Q360 574 310 545.50Q260 517 231.50 466Q203 415 203 350Q203 285 231.50 234Q260 183 310 154.50Q360 126 422 126M669 770L774 770L176-70L71-70L669 770Z"  horiz-adv-x="844" vert-adv-y="1000"  />

      
      <glyph glyph-name="uni01FE" unicode="&#x01FE;" d="M422-12Q313-12 225.50 35Q138 82 88.50 164.50Q39 247 39 350Q39 453 88.50 535.50Q138 618 225.50 665Q313 712 422 712Q531 712 618 665Q705 618 755 535.50Q805 453 805 350Q805 247 755 164.50Q705 82 618 35Q531-12 422-12M422 126Q484 126 534 154.50Q584 183 612.50 234Q641 285 641 350Q641 415 612.50 466Q584 517 534 545.50Q484 574 422 574Q360 574 310 545.50Q260 517 231.50 466Q203 415 203 350Q203 285 231.50 234Q260 183 310 154.50Q360 126 422 126M669 770L774 770L176-70L71-70L669 770M466 901L634 901L453 757L331 757L466 901Z"  horiz-adv-x="844" vert-adv-y="1000"  />

      
      <glyph glyph-name="unid5" unicode="&#xd5;" d="M422-12Q313-12 225.50 35Q138 82 88.50 164.50Q39 247 39 350Q39 453 88.50 535.50Q138 618 225.50 665Q313 712 422 712Q531 712 618 665Q705 618 755 535.50Q805 453 805 350Q805 247 755 164.50Q705 82 618 35Q531-12 422-12M422 126Q484 126 534 154.50Q584 183 612.50 234Q641 285 641 350Q641 415 612.50 466Q584 517 534 545.50Q484 574 422 574Q360 574 310 545.50Q260 517 231.50 466Q203 415 203 350Q203 285 231.50 234Q260 183 310 154.50Q360 126 422 126M497 754Q470 754 449.50 764.50Q429 775 404 793Q388 805 377.50 811Q367 817 357 817Q336 817 323 802.50Q310 788 309 761L230 761Q232 828 263.50 867.50Q295 907 347 907Q373 907 393.50 896.50Q414 886 440 867Q456 855 466.50 849Q477 843 487 843Q507 843 520.50 857.50Q534 872 535 897L614 897Q612 832 580.50 793Q549 754 497 754Z"  horiz-adv-x="844" vert-adv-y="1000"  />

      
      <glyph glyph-name="uni1E4C" unicode="&#x1E4C;" d="M422-12Q313-12 225.50 35Q138 82 88.50 164.50Q39 247 39 350Q39 453 88.50 535.50Q138 618 225.50 665Q313 712 422 712Q531 712 618 665Q705 618 755 535.50Q805 453 805 350Q805 247 755 164.50Q705 82 618 35Q531-12 422-12M422 126Q484 126 534 154.50Q584 183 612.50 234Q641 285 641 350Q641 415 612.50 466Q584 517 534 545.50Q484 574 422 574Q360 574 310 545.50Q260 517 231.50 466Q203 415 203 350Q203 285 231.50 234Q260 183 310 154.50Q360 126 422 126M496 755Q469 755 448 763.50Q427 772 402 788Q390 795 378.50 801Q367 807 358 807Q338 807 327 795Q316 783 314 761L234 761Q235 821 265.50 853.50Q296 886 350 886Q376 886 394.50 878Q413 870 441 854Q457 844 467.50 839Q478 834 488 834Q508 834 519 846.50Q530 859 532 879L610 879Q609 821 579 788Q549 755 496 755M447 1039L606 1039L449 918L336 918L447 1039Z"  horiz-adv-x="844" vert-adv-y="1000"  />

      
      <glyph glyph-name="uni1E4E" unicode="&#x1E4E;" d="M422-12Q313-12 225.50 35Q138 82 88.50 164.50Q39 247 39 350Q39 453 88.50 535.50Q138 618 225.50 665Q313 712 422 712Q531 712 618 665Q705 618 755 535.50Q805 453 805 350Q805 247 755 164.50Q705 82 618 35Q531-12 422-12M422 126Q484 126 534 154.50Q584 183 612.50 234Q641 285 641 350Q641 415 612.50 466Q584 517 534 545.50Q484 574 422 574Q360 574 310 545.50Q260 517 231.50 466Q203 415 203 350Q203 285 231.50 234Q260 183 310 154.50Q360 126 422 126M496 755Q469 755 448 763.50Q427 772 402 788Q390 795 378.50 801Q367 807 358 807Q338 807 327 795Q316 783 314 761L234 761Q235 821 265.50 853.50Q296 886 350 886Q376 886 394.50 878Q413 870 441 854Q457 844 467.50 839Q478 834 488 834Q508 834 519 846.50Q530 859 532 879L610 879Q609 821 579 788Q549 755 496 755M324 923Q296 923 277 941.50Q258 960 258 989Q258 1017 277 1036Q296 1055 324 1055Q353 1055 372 1036Q391 1017 391 989Q391 960 372 941.50Q353 923 324 923M520 923Q492 923 473 941.50Q454 960 454 989Q454 1017 473.50 1036Q493 1055 520 1055Q548 1055 567 1036Q586 1017 586 989Q586 960 567 941.50Q548 923 520 923Z"  horiz-adv-x="844" vert-adv-y="1000"  />

      
      <glyph glyph-name="uni022C" unicode="&#x022C;" d="M422-12Q313-12 225.50 35Q138 82 88.50 164.50Q39 247 39 350Q39 453 88.50 535.50Q138 618 225.50 665Q313 712 422 712Q531 712 618 665Q705 618 755 535.50Q805 453 805 350Q805 247 755 164.50Q705 82 618 35Q531-12 422-12M422 126Q484 126 534 154.50Q584 183 612.50 234Q641 285 641 350Q641 415 612.50 466Q584 517 534 545.50Q484 574 422 574Q360 574 310 545.50Q260 517 231.50 466Q203 415 203 350Q203 285 231.50 234Q260 183 310 154.50Q360 126 422 126M496 755Q469 755 448 763.50Q427 772 402 788Q390 795 378.50 801Q367 807 358 807Q338 807 327 795Q316 783 314 761L234 761Q235 821 265.50 853.50Q296 886 350 886Q376 886 394.50 878Q413 870 441 854Q457 844 467.50 839Q478 834 488 834Q508 834 519 846.50Q530 859 532 879L610 879Q609 821 579 788Q549 755 496 755M237 1017L607 1017L607 934L237 934L237 1017Z"  horiz-adv-x="844" vert-adv-y="1000"  />

      
      <glyph glyph-name="uni0152" unicode="&#x0152;" d="M1090 130L1090 0L425 0Q311 0 223.50 43.50Q136 87 87.50 166Q39 245 39 349Q39 454 87.50 533.50Q136 613 223.50 656.50Q311 700 425 700L1077 700L1077 570L709 570L709 418L1034 418L1034 292L709 292L709 130L1090 130M548 133L548 567L433 567Q328 567 265.50 508.50Q203 450 203 349Q203 250 265.50 191.50Q328 133 433 133L548 133Z"  horiz-adv-x="1136" vert-adv-y="1000"  />

      
      <glyph glyph-name="uni50" unicode="&#x50;" d="M386 700Q479 700 547.50 669Q616 638 653 581Q690 524 690 446Q690 369 653 311.50Q616 254 547.50 223.50Q479 193 386 193L245 193L245 0L83 0L83 700L386 700M377 325Q450 325 488 356.50Q526 388 526 446Q526 505 488 536.50Q450 568 377 568L245 568L245 325L377 325Z"  horiz-adv-x="732" vert-adv-y="1000"  />

      
      <glyph glyph-name="unide" unicode="&#xde;" d="M386 623Q479 623 547.50 592Q616 561 653 504Q690 447 690 369Q690 291 653 234Q616 177 547.50 146Q479 115 386 115L245 115L245 0L83 0L83 700L245 700L245 623L386 623M377 247Q450 247 488 278.50Q526 310 526 369Q526 428 488 459.50Q450 491 377 491L245 491L245 247L377 247Z"  horiz-adv-x="732" vert-adv-y="1000"  />

      
      <glyph glyph-name="uni51" unicode="&#x51;" d="M840-75Q806-117 757.50-139Q709-161 651-161Q573-161 510-127.50Q447-94 366-9Q271 3 196.50 52Q122 101 80.50 178.50Q39 256 39 350Q39 453 88.50 535.50Q138 618 225.50 665Q313 712 422 712Q531 712 618 665Q705 618 755 535.50Q805 453 805 350Q805 228 736.50 136Q668 44 555 8Q580-18 603.50-29.50Q627-41 654-41Q719-41 768 11L840-75M203 350Q203 285 231.50 234Q260 183 310 154.50Q360 126 422 126Q484 126 534 154.50Q584 183 612.50 234Q641 285 641 350Q641 415 612.50 466Q584 517 534 545.50Q484 574 422 574Q360 574 310 545.50Q260 517 231.50 466Q203 415 203 350Z"  horiz-adv-x="844" vert-adv-y="1000"  />

      
      <glyph glyph-name="uni52" unicode="&#x52;" d="M529 0L394 195L386 195L245 195L245 0L83 0L83 700L386 700Q479 700 547.50 669Q616 638 653 581Q690 524 690 446Q690 368 652.50 311.50Q615 255 546 225L703 0L529 0M526 446Q526 505 488 536.50Q450 568 377 568L245 568L245 324L377 324Q450 324 488 356Q526 388 526 446Z"  horiz-adv-x="735" vert-adv-y="1000"  />

      
      <glyph glyph-name="uni0154" unicode="&#x0154;" d="M529 0L394 195L386 195L245 195L245 0L83 0L83 700L386 700Q479 700 547.50 669Q616 638 653 581Q690 524 690 446Q690 368 652.50 311.50Q615 255 546 225L703 0L529 0M526 446Q526 505 488 536.50Q450 568 377 568L245 568L245 324L377 324Q450 324 488 356Q526 388 526 446M419 901L587 901L406 757L284 757L419 901Z"  horiz-adv-x="735" vert-adv-y="1000"  />

      
      <glyph glyph-name="uni0158" unicode="&#x0158;" d="M529 0L394 195L386 195L245 195L245 0L83 0L83 700L386 700Q479 700 547.50 669Q616 638 653 581Q690 524 690 446Q690 368 652.50 311.50Q615 255 546 225L703 0L529 0M526 446Q526 505 488 536.50Q450 568 377 568L245 568L245 324L377 324Q450 324 488 356Q526 388 526 446M576 901L444 757L306 757L174 901L288 901L375 826L462 901L576 901Z"  horiz-adv-x="735" vert-adv-y="1000"  />

      
      <glyph glyph-name="uni0156" unicode="&#x0156;" d="M529 0L394 195L386 195L245 195L245 0L83 0L83 700L386 700Q479 700 547.50 669Q616 638 653 581Q690 524 690 446Q690 368 652.50 311.50Q615 255 546 225L703 0L529 0M526 446Q526 505 488 536.50Q450 568 377 568L245 568L245 324L377 324Q450 324 488 356Q526 388 526 446M375-73Q407-73 425.50-89.50Q444-106 444-133Q444-164 426-198L391-266L318-266L343-186Q325-180 315.50-166.50Q306-153 306-133Q306-106 324.50-89.50Q343-73 375-73Z"  horiz-adv-x="735" vert-adv-y="1000"  />

      
      <glyph glyph-name="uni0210" unicode="&#x0210;" d="M529 0L394 195L386 195L245 195L245 0L83 0L83 700L386 700Q479 700 547.50 669Q616 638 653 581Q690 524 690 446Q690 368 652.50 311.50Q615 255 546 225L703 0L529 0M526 446Q526 505 488 536.50Q450 568 377 568L245 568L245 324L377 324Q450 324 488 356Q526 388 526 446M113 901L259 901L331 757L217 757L113 901M315 901L461 901L533 757L419 757L315 901Z"  horiz-adv-x="735" vert-adv-y="1000"  />

      
      <glyph glyph-name="uni1E5A" unicode="&#x1E5A;" d="M529 0L394 195L386 195L245 195L245 0L83 0L83 700L386 700Q479 700 547.50 669Q616 638 653 581Q690 524 690 446Q690 368 652.50 311.50Q615 255 546 225L703 0L529 0M526 446Q526 505 488 536.50Q450 568 377 568L245 568L245 324L377 324Q450 324 488 356Q526 388 526 446M375-210Q345-210 325.50-191.50Q306-173 306-143Q306-113 325.50-93Q345-73 375-73Q404-73 424-93Q444-113 444-143Q444-173 424.50-191.50Q405-210 375-210Z"  horiz-adv-x="735" vert-adv-y="1000"  />

      
      <glyph glyph-name="uni0212" unicode="&#x0212;" d="M529 0L394 195L386 195L245 195L245 0L83 0L83 700L386 700Q479 700 547.50 669Q616 638 653 581Q690 524 690 446Q690 368 652.50 311.50Q615 255 546 225L703 0L529 0M526 446Q526 505 488 536.50Q450 568 377 568L245 568L245 324L377 324Q450 324 488 356Q526 388 526 446M191 757Q194 827 245 868Q296 909 375 909Q454 909 505 868Q556 827 559 757L461 757Q460 789 435.50 808.50Q411 828 375 828Q339 828 314.50 808.50Q290 789 289 757L191 757Z"  horiz-adv-x="735" vert-adv-y="1000"  />

      
      <glyph glyph-name="uni1E5E" unicode="&#x1E5E;" d="M529 0L394 195L386 195L245 195L245 0L83 0L83 700L386 700Q479 700 547.50 669Q616 638 653 581Q690 524 690 446Q690 368 652.50 311.50Q615 255 546 225L703 0L529 0M526 446Q526 505 488 536.50Q450 568 377 568L245 568L245 324L377 324Q450 324 488 356Q526 388 526 446M190-95L560-95L560-182L190-182L190-95Z"  horiz-adv-x="735" vert-adv-y="1000"  />

      
      <glyph glyph-name="uni53" unicode="&#x53;" d="M313-12Q230-12 152.50 10.50Q75 33 28 69L83 191Q128 158 190 138Q252 118 314 118Q383 118 416 138.50Q449 159 449 193Q449 218 429.50 234.50Q410 251 379.50 261Q349 271 297 283Q217 302 166 321Q115 340 78.50 382Q42 424 42 494Q42 555 75 604.50Q108 654 174.50 683Q241 712 337 712Q404 712 468 696Q532 680 580 650L530 527Q433 582 336 582Q268 582 235.50 560Q203 538 203 502Q203 466 240.50 448.50Q278 431 355 414Q435 395 486 376Q537 357 573.50 316Q610 275 610 205Q610 145 576.50 95.50Q543 46 476 17Q409-12 313-12Z"  horiz-adv-x="638" vert-adv-y="1000"  />

      
      <glyph glyph-name="uni015A" unicode="&#x015A;" d="M313-12Q230-12 152.50 10.50Q75 33 28 69L83 191Q128 158 190 138Q252 118 314 118Q383 118 416 138.50Q449 159 449 193Q449 218 429.50 234.50Q410 251 379.50 261Q349 271 297 283Q217 302 166 321Q115 340 78.50 382Q42 424 42 494Q42 555 75 604.50Q108 654 174.50 683Q241 712 337 712Q404 712 468 696Q532 680 580 650L530 527Q433 582 336 582Q268 582 235.50 560Q203 538 203 502Q203 466 240.50 448.50Q278 431 355 414Q435 395 486 376Q537 357 573.50 316Q610 275 610 205Q610 145 576.50 95.50Q543 46 476 17Q409-12 313-12M369 901L537 901L356 757L234 757L369 901Z"  horiz-adv-x="638" vert-adv-y="1000"  />

      
      <glyph glyph-name="uni1E64" unicode="&#x1E64;" d="M313-12Q230-12 152.50 10.50Q75 33 28 69L83 191Q128 158 190 138Q252 118 314 118Q383 118 416 138.50Q449 159 449 193Q449 218 429.50 234.50Q410 251 379.50 261Q349 271 297 283Q217 302 166 321Q115 340 78.50 382Q42 424 42 494Q42 555 75 604.50Q108 654 174.50 683Q241 712 337 712Q404 712 468 696Q532 680 580 650L530 527Q433 582 336 582Q268 582 235.50 560Q203 538 203 502Q203 466 240.50 448.50Q278 431 355 414Q435 395 486 376Q537 357 573.50 316Q610 275 610 205Q610 145 576.50 95.50Q543 46 476 17Q409-12 313-12M350 878L509 878L352 757L239 757L350 878M325 922Q295 922 275.50 941Q256 960 256 990Q256 1020 275.50 1039.50Q295 1059 325 1059Q355 1059 374.50 1039.50Q394 1020 394 990Q394 960 374.50 941Q355 922 325 922Z"  horiz-adv-x="638" vert-adv-y="1000"  />

      
      <glyph glyph-name="uniA78B" unicode="&#xA78B;" d="M68 700L228 700L208 297L68 297L68 700Z"  horiz-adv-x="297" vert-adv-y="1000"  />

      
      <glyph glyph-name="uni0160" unicode="&#x0160;" d="M313-12Q230-12 152.50 10.50Q75 33 28 69L83 191Q128 158 190 138Q252 118 314 118Q383 118 416 138.50Q449 159 449 193Q449 218 429.50 234.50Q410 251 379.50 261Q349 271 297 283Q217 302 166 321Q115 340 78.50 382Q42 424 42 494Q42 555 75 604.50Q108 654 174.50 683Q241 712 337 712Q404 712 468 696Q532 680 580 650L530 527Q433 582 336 582Q268 582 235.50 560Q203 538 203 502Q203 466 240.50 448.50Q278 431 355 414Q435 395 486 376Q537 357 573.50 316Q610 275 610 205Q610 145 576.50 95.50Q543 46 476 17Q409-12 313-12M526 901L394 757L256 757L124 901L238 901L325 826L412 901L526 901Z"  horiz-adv-x="638" vert-adv-y="1000"  />

      
      <glyph glyph-name="uni1E66" unicode="&#x1E66;" d="M313-12Q230-12 152.50 10.50Q75 33 28 69L83 191Q128 158 190 138Q252 118 314 118Q383 118 416 138.50Q449 159 449 193Q449 218 429.50 234.50Q410 251 379.50 261Q349 271 297 283Q217 302 166 321Q115 340 78.50 382Q42 424 42 494Q42 555 75 604.50Q108 654 174.50 683Q241 712 337 712Q404 712 468 696Q532 680 580 650L530 527Q433 582 336 582Q268 582 235.50 560Q203 538 203 502Q203 466 240.50 448.50Q278 431 355 414Q435 395 486 376Q537 357 573.50 316Q610 275 610 205Q610 145 576.50 95.50Q543 46 476 17Q409-12 313-12M526 871L393 757L257 757L124 871L239 871L325 814L411 871L526 871M325 899Q295 899 275.50 918Q256 937 256 967Q256 997 275.50 1016.50Q295 1036 325 1036Q355 1036 374.50 1016.50Q394 997 394 967Q394 937 374.50 918Q355 899 325 899Z"  horiz-adv-x="638" vert-adv-y="1000"  />

      
      <glyph glyph-name="uni015E" unicode="&#x015E;" d="M313-12Q230-12 152.50 10.50Q75 33 28 69L83 191Q128 158 190 138Q252 118 314 118Q383 118 416 138.50Q449 159 449 193Q449 218 429.50 234.50Q410 251 379.50 261Q349 271 297 283Q217 302 166 321Q115 340 78.50 382Q42 424 42 494Q42 555 75 604.50Q108 654 174.50 683Q241 712 337 712Q404 712 468 696Q532 680 580 650L530 527Q433 582 336 582Q268 582 235.50 560Q203 538 203 502Q203 466 240.50 448.50Q278 431 355 414Q435 395 486 376Q537 357 573.50 316Q610 275 610 205Q610 145 576.50 95.50Q543 46 476 17Q409-12 313-12M292-232Q266-232 241-226.50Q216-221 199-211L223-144Q255-159 288-159Q340-159 340-127Q340-98 291-98L257-98L283 8L366 8L352-50Q396-55 417.50-77.50Q439-100 439-133Q439-179 399-205.50Q359-232 292-232Z"  horiz-adv-x="638" vert-adv-y="1000"  />

      
      <glyph glyph-name="uni015C" unicode="&#x015C;" d="M313-12Q230-12 152.50 10.50Q75 33 28 69L83 191Q128 158 190 138Q252 118 314 118Q383 118 416 138.50Q449 159 449 193Q449 218 429.50 234.50Q410 251 379.50 261Q349 271 297 283Q217 302 166 321Q115 340 78.50 382Q42 424 42 494Q42 555 75 604.50Q108 654 174.50 683Q241 712 337 712Q404 712 468 696Q532 680 580 650L530 527Q433 582 336 582Q268 582 235.50 560Q203 538 203 502Q203 466 240.50 448.50Q278 431 355 414Q435 395 486 376Q537 357 573.50 316Q610 275 610 205Q610 145 576.50 95.50Q543 46 476 17Q409-12 313-12M412 757L325 833L238 757L124 757L256 901L394 901L526 757L412 757Z"  horiz-adv-x="638" vert-adv-y="1000"  />

      
      <glyph glyph-name="uni0218" unicode="&#x0218;" d="M313-12Q230-12 152.50 10.50Q75 33 28 69L83 191Q128 158 190 138Q252 118 314 118Q383 118 416 138.50Q449 159 449 193Q449 218 429.50 234.50Q410 251 379.50 261Q349 271 297 283Q217 302 166 321Q115 340 78.50 382Q42 424 42 494Q42 555 75 604.50Q108 654 174.50 683Q241 712 337 712Q404 712 468 696Q532 680 580 650L530 527Q433 582 336 582Q268 582 235.50 560Q203 538 203 502Q203 466 240.50 448.50Q278 431 355 414Q435 395 486 376Q537 357 573.50 316Q610 275 610 205Q610 145 576.50 95.50Q543 46 476 17Q409-12 313-12M325-73Q357-73 375.50-89.50Q394-106 394-133Q394-164 376-198L341-266L268-266L293-186Q275-180 265.50-166.50Q256-153 256-133Q256-106 274.50-89.50Q293-73 325-73Z"  horiz-adv-x="638" vert-adv-y="1000"  />

      
      <glyph glyph-name="uni1E60" unicode="&#x1E60;" d="M313-12Q230-12 152.50 10.50Q75 33 28 69L83 191Q128 158 190 138Q252 118 314 118Q383 118 416 138.50Q449 159 449 193Q449 218 429.50 234.50Q410 251 379.50 261Q349 271 297 283Q217 302 166 321Q115 340 78.50 382Q42 424 42 494Q42 555 75 604.50Q108 654 174.50 683Q241 712 337 712Q404 712 468 696Q532 680 580 650L530 527Q433 582 336 582Q268 582 235.50 560Q203 538 203 502Q203 466 240.50 448.50Q278 431 355 414Q435 395 486 376Q537 357 573.50 316Q610 275 610 205Q610 145 576.50 95.50Q543 46 476 17Q409-12 313-12M325 762Q288 762 264.50 786Q241 810 241 847Q241 883 264.50 907Q288 931 325 931Q362 931 385.50 907Q409 883 409 847Q409 810 385.50 786Q362 762 325 762Z"  horiz-adv-x="638" vert-adv-y="1000"  />

      
      <glyph glyph-name="uni1E62" unicode="&#x1E62;" d="M313-12Q230-12 152.50 10.50Q75 33 28 69L83 191Q128 158 190 138Q252 118 314 118Q383 118 416 138.50Q449 159 449 193Q449 218 429.50 234.50Q410 251 379.50 261Q349 271 297 283Q217 302 166 321Q115 340 78.50 382Q42 424 42 494Q42 555 75 604.50Q108 654 174.50 683Q241 712 337 712Q404 712 468 696Q532 680 580 650L530 527Q433 582 336 582Q268 582 235.50 560Q203 538 203 502Q203 466 240.50 448.50Q278 431 355 414Q435 395 486 376Q537 357 573.50 316Q610 275 610 205Q610 145 576.50 95.50Q543 46 476 17Q409-12 313-12M325-210Q295-210 275.50-191.50Q256-173 256-143Q256-113 275.50-93Q295-73 325-73Q354-73 374-93Q394-113 394-143Q394-173 374.50-191.50Q355-210 325-210Z"  horiz-adv-x="638" vert-adv-y="1000"  />

      
      <glyph glyph-name="uni1E68" unicode="&#x1E68;" d="M313-12Q230-12 152.50 10.50Q75 33 28 69L83 191Q128 158 190 138Q252 118 314 118Q383 118 416 138.50Q449 159 449 193Q449 218 429.50 234.50Q410 251 379.50 261Q349 271 297 283Q217 302 166 321Q115 340 78.50 382Q42 424 42 494Q42 555 75 604.50Q108 654 174.50 683Q241 712 337 712Q404 712 468 696Q532 680 580 650L530 527Q433 582 336 582Q268 582 235.50 560Q203 538 203 502Q203 466 240.50 448.50Q278 431 355 414Q435 395 486 376Q537 357 573.50 316Q610 275 610 205Q610 145 576.50 95.50Q543 46 476 17Q409-12 313-12M325-210Q295-210 275.50-191.50Q256-173 256-143Q256-113 275.50-93Q295-73 325-73Q354-73 374-93Q394-113 394-143Q394-173 374.50-191.50Q355-210 325-210M325 762Q288 762 264.50 786Q241 810 241 847Q241 883 264.50 907Q288 931 325 931Q362 931 385.50 907Q409 883 409 847Q409 810 385.50 786Q362 762 325 762Z"  horiz-adv-x="638" vert-adv-y="1000"  />

      
      <glyph glyph-name="uni1E9E" unicode="&#x1E9E;" d="M557 418Q639 401 689.50 345.50Q740 290 740 206Q740 138 706 89Q672 40 613.50 14Q555-12 482-12Q393-12 331 12L355 140Q399 118 457 118Q515 118 545.50 142Q576 166 576 213Q576 259 545 283.50Q514 308 458 308Q415 308 384 297L356 367L528 566Q479 583 422 583Q333 583 286 532.50Q239 482 239 388L239 0L77 0L77 392Q77 491 117 563Q157 635 234.50 674Q312 713 420 713Q488 713 556 695.50Q624 678 670 646L670 548L557 418Z"  horiz-adv-x="779" vert-adv-y="1000"  />

      
      <glyph glyph-name="uni018F" unicode="&#x018F;" d="M398 712Q507 712 594 665.50Q681 619 729.50 536.50Q778 454 778 351Q778 247 730 164Q682 81 598 34.50Q514-12 409-12Q303-12 218.50 35Q134 82 86.50 166Q39 250 39 357L39 391L612 391Q604 444 574 485.50Q544 527 498 550.50Q452 574 397 574Q341 574 286 552.50Q231 531 194 492L97 597Q148 649 228 680.50Q308 712 398 712M409 117Q491 117 543.50 161Q596 205 610 281L207 281Q221 204 274 160.50Q327 117 409 117Z"  horiz-adv-x="817" vert-adv-y="1000"  />

      
      <glyph glyph-name="uni54" unicode="&#x54;" d="M228 568L4 568L4 700L614 700L614 568L390 568L390 0L228 0L228 568Z"  horiz-adv-x="618" vert-adv-y="1000"  />

      
      <glyph glyph-name="uni0166" unicode="&#x0166;" d="M228 568L4 568L4 700L614 700L614 568L390 568L390 0L228 0L228 568M93 382L525 382L525 274L93 274L93 382Z"  horiz-adv-x="618" vert-adv-y="1000"  />

      
      <glyph glyph-name="uni0164" unicode="&#x0164;" d="M228 568L4 568L4 700L614 700L614 568L390 568L390 0L228 0L228 568M510 901L378 757L240 757L108 901L222 901L309 826L396 901L510 901Z"  horiz-adv-x="618" vert-adv-y="1000"  />

      
      <glyph glyph-name="uni0162" unicode="&#x0162;" d="M228 568L4 568L4 700L614 700L614 568L390 568L390 0L228 0L228 568M276-232Q250-232 225-226.50Q200-221 183-211L207-144Q239-159 272-159Q324-159 324-127Q324-98 275-98L241-98L267 8L350 8L336-50Q380-55 401.50-77.50Q423-100 423-133Q423-179 383-205.50Q343-232 276-232Z"  horiz-adv-x="618" vert-adv-y="1000"  />

      
      <glyph glyph-name="uni021A" unicode="&#x021A;" d="M228 568L4 568L4 700L614 700L614 568L390 568L390 0L228 0L228 568M309-73Q341-73 359.50-89.50Q378-106 378-133Q378-164 360-198L325-266L252-266L277-186Q259-180 249.50-166.50Q240-153 240-133Q240-106 258.50-89.50Q277-73 309-73Z"  horiz-adv-x="618" vert-adv-y="1000"  />

      
      <glyph glyph-name="uni1E6C" unicode="&#x1E6C;" d="M228 568L4 568L4 700L614 700L614 568L390 568L390 0L228 0L228 568M309-210Q279-210 259.50-191.50Q240-173 240-143Q240-113 259.50-93Q279-73 309-73Q338-73 358-93Q378-113 378-143Q378-173 358.50-191.50Q339-210 309-210Z"  horiz-adv-x="618" vert-adv-y="1000"  />

      
      <glyph glyph-name="uni1E6E" unicode="&#x1E6E;" d="M228 568L4 568L4 700L614 700L614 568L390 568L390 0L228 0L228 568M124-95L494-95L494-182L124-182L124-95Z"  horiz-adv-x="618" vert-adv-y="1000"  />

      
      <glyph glyph-name="uni55" unicode="&#x55;" d="M394-12Q244-12 160.50 71Q77 154 77 308L77 700L239 700L239 314Q239 126 395 126Q471 126 511 171.50Q551 217 551 314L551 700L711 700L711 308Q711 154 627.50 71Q544-12 394-12Z"  horiz-adv-x="788" vert-adv-y="1000"  />

      
      <glyph glyph-name="unida" unicode="&#xda;" d="M394-12Q244-12 160.50 71Q77 154 77 308L77 700L239 700L239 314Q239 126 395 126Q471 126 511 171.50Q551 217 551 314L551 700L711 700L711 308Q711 154 627.50 71Q544-12 394-12M439 901L607 901L426 757L304 757L439 901Z"  horiz-adv-x="788" vert-adv-y="1000"  />

      
      <glyph glyph-name="uni016C" unicode="&#x016C;" d="M394-12Q244-12 160.50 71Q77 154 77 308L77 700L239 700L239 314Q239 126 395 126Q471 126 511 171.50Q551 217 551 314L551 700L711 700L711 308Q711 154 627.50 71Q544-12 394-12M395 749Q316 749 265 790Q214 831 211 901L309 901Q310 869 334.50 849.50Q359 830 395 830Q431 830 455.50 849.50Q480 869 481 901L579 901Q576 831 525 790Q474 749 395 749Z"  horiz-adv-x="788" vert-adv-y="1000"  />

      
      <glyph glyph-name="uni01D3" unicode="&#x01D3;" d="M394-12Q244-12 160.50 71Q77 154 77 308L77 700L239 700L239 314Q239 126 395 126Q471 126 511 171.50Q551 217 551 314L551 700L711 700L711 308Q711 154 627.50 71Q544-12 394-12M596 901L464 757L326 757L194 901L308 901L395 826L482 901L596 901Z"  horiz-adv-x="788" vert-adv-y="1000"  />

      
      <glyph glyph-name="unidb" unicode="&#xdb;" d="M394-12Q244-12 160.50 71Q77 154 77 308L77 700L239 700L239 314Q239 126 395 126Q471 126 511 171.50Q551 217 551 314L551 700L711 700L711 308Q711 154 627.50 71Q544-12 394-12M482 757L395 833L308 757L194 757L326 901L464 901L596 757L482 757Z"  horiz-adv-x="788" vert-adv-y="1000"  />

      
      <glyph glyph-name="uni0214" unicode="&#x0214;" d="M394-12Q244-12 160.50 71Q77 154 77 308L77 700L239 700L239 314Q239 126 395 126Q471 126 511 171.50Q551 217 551 314L551 700L711 700L711 308Q711 154 627.50 71Q544-12 394-12M133 901L279 901L351 757L237 757L133 901M335 901L481 901L553 757L439 757L335 901Z"  horiz-adv-x="788" vert-adv-y="1000"  />

      
      <glyph glyph-name="unidc" unicode="&#xdc;" d="M394-12Q244-12 160.50 71Q77 154 77 308L77 700L239 700L239 314Q239 126 395 126Q471 126 511 171.50Q551 217 551 314L551 700L711 700L711 308Q711 154 627.50 71Q544-12 394-12M294 762Q264 762 244 781.50Q224 801 224 831Q224 861 244 880.50Q264 900 294 900Q324 900 343.50 880.50Q363 861 363 831Q363 801 343.50 781.50Q324 762 294 762M496 762Q466 762 446.50 781.50Q427 801 427 831Q427 861 446.50 880.50Q466 900 496 900Q526 900 546 880.50Q566 861 566 831Q566 801 546 781.50Q526 762 496 762Z"  horiz-adv-x="788" vert-adv-y="1000"  />

      
      <glyph glyph-name="uni1EE4" unicode="&#x1EE4;" d="M394-12Q244-12 160.50 71Q77 154 77 308L77 700L239 700L239 314Q239 126 395 126Q471 126 511 171.50Q551 217 551 314L551 700L711 700L711 308Q711 154 627.50 71Q544-12 394-12M395-210Q365-210 345.50-191.50Q326-173 326-143Q326-113 345.50-93Q365-73 395-73Q424-73 444-93Q464-113 464-143Q464-173 444.50-191.50Q425-210 395-210Z"  horiz-adv-x="788" vert-adv-y="1000"  />

      
      <glyph glyph-name="unid9" unicode="&#xd9;" d="M394-12Q244-12 160.50 71Q77 154 77 308L77 700L239 700L239 314Q239 126 395 126Q471 126 511 171.50Q551 217 551 314L551 700L711 700L711 308Q711 154 627.50 71Q544-12 394-12M183 901L351 901L486 757L364 757L183 901Z"  horiz-adv-x="788" vert-adv-y="1000"  />

      
      <glyph glyph-name="uni1EE6" unicode="&#x1EE6;" d="M394-12Q244-12 160.50 71Q77 154 77 308L77 700L239 700L239 314Q239 126 395 126Q471 126 511 171.50Q551 217 551 314L551 700L711 700L711 308Q711 154 627.50 71Q544-12 394-12M376 799Q404 812 415.50 827Q427 842 427 860Q427 879 414 890.50Q401 902 380 902Q350 902 321 883L289 946Q332 980 397 980Q450 980 483.50 950.50Q517 921 517 873Q517 789 425 747L376 799Z"  horiz-adv-x="788" vert-adv-y="1000"  />

      
      <glyph glyph-name="uni01AF" unicode="&#x01AF;" d="M394-12Q244-12 160.50 71Q77 154 77 308L77 700L239 700L239 314Q239 126 395 126Q471 126 511 171.50Q551 217 551 314L551 700L711 700L711 308Q711 154 627.50 71Q544-12 394-12M628 700L655 700Q682 700 698.50 717.50Q715 735 715 763Q715 798 695 823L787 857Q819 815 819 757Q819 682 774.50 639Q730 596 651 596L628 596L628 700Z"  horiz-adv-x="801" vert-adv-y="1000"  />

      
      <glyph glyph-name="uni1EE8" unicode="&#x1EE8;" d="M394-12Q244-12 160.50 71Q77 154 77 308L77 700L239 700L239 314Q239 126 395 126Q471 126 511 171.50Q551 217 551 314L551 700L711 700L711 308Q711 154 627.50 71Q544-12 394-12M628 700L655 700Q682 700 698.50 717.50Q715 735 715 763Q715 798 695 823L787 857Q819 815 819 757Q819 682 774.50 639Q730 596 651 596L628 596L628 700M439 901L607 901L426 757L304 757L439 901Z"  horiz-adv-x="801" vert-adv-y="1000"  />

      
      <glyph glyph-name="uni1EF0" unicode="&#x1EF0;" d="M394-12Q244-12 160.50 71Q77 154 77 308L77 700L239 700L239 314Q239 126 395 126Q471 126 511 171.50Q551 217 551 314L551 700L711 700L711 308Q711 154 627.50 71Q544-12 394-12M628 700L655 700Q682 700 698.50 717.50Q715 735 715 763Q715 798 695 823L787 857Q819 815 819 757Q819 682 774.50 639Q730 596 651 596L628 596L628 700M395-210Q365-210 345.50-191.50Q326-173 326-143Q326-113 345.50-93Q365-73 395-73Q424-73 444-93Q464-113 464-143Q464-173 444.50-191.50Q425-210 395-210Z"  horiz-adv-x="801" vert-adv-y="1000"  />

      
      <glyph glyph-name="uni1EEA" unicode="&#x1EEA;" d="M394-12Q244-12 160.50 71Q77 154 77 308L77 700L239 700L239 314Q239 126 395 126Q471 126 511 171.50Q551 217 551 314L551 700L711 700L711 308Q711 154 627.50 71Q544-12 394-12M628 700L655 700Q682 700 698.50 717.50Q715 735 715 763Q715 798 695 823L787 857Q819 815 819 757Q819 682 774.50 639Q730 596 651 596L628 596L628 700M183 901L351 901L486 757L364 757L183 901Z"  horiz-adv-x="801" vert-adv-y="1000"  />

      
      <glyph glyph-name="uni1EEC" unicode="&#x1EEC;" d="M394-12Q244-12 160.50 71Q77 154 77 308L77 700L239 700L239 314Q239 126 395 126Q471 126 511 171.50Q551 217 551 314L551 700L711 700L711 308Q711 154 627.50 71Q544-12 394-12M628 700L655 700Q682 700 698.50 717.50Q715 735 715 763Q715 798 695 823L787 857Q819 815 819 757Q819 682 774.50 639Q730 596 651 596L628 596L628 700M376 799Q404 812 415.50 827Q427 842 427 860Q427 879 414 890.50Q401 902 380 902Q350 902 321 883L289 946Q332 980 397 980Q450 980 483.50 950.50Q517 921 517 873Q517 789 425 747L376 799Z"  horiz-adv-x="801" vert-adv-y="1000"  />

      
      <glyph glyph-name="uni1EEE" unicode="&#x1EEE;" d="M394-12Q244-12 160.50 71Q77 154 77 308L77 700L239 700L239 314Q239 126 395 126Q471 126 511 171.50Q551 217 551 314L551 700L711 700L711 308Q711 154 627.50 71Q544-12 394-12M628 700L655 700Q682 700 698.50 717.50Q715 735 715 763Q715 798 695 823L787 857Q819 815 819 757Q819 682 774.50 639Q730 596 651 596L628 596L628 700M470 754Q443 754 422.50 764.50Q402 775 377 793Q361 805 350.50 811Q340 817 330 817Q309 817 296 802.50Q283 788 282 761L203 761Q205 828 236.50 867.50Q268 907 320 907Q346 907 366.50 896.50Q387 886 413 867Q429 855 439.50 849Q450 843 460 843Q480 843 493.50 857.50Q507 872 508 897L587 897Q585 832 553.50 793Q522 754 470 754Z"  horiz-adv-x="801" vert-adv-y="1000"  />

      
      <glyph glyph-name="uni0170" unicode="&#x0170;" d="M394-12Q244-12 160.50 71Q77 154 77 308L77 700L239 700L239 314Q239 126 395 126Q471 126 511 171.50Q551 217 551 314L551 700L711 700L711 308Q711 154 627.50 71Q544-12 394-12M309 901L455 901L351 757L237 757L309 901M511 901L657 901L553 757L439 757L511 901Z"  horiz-adv-x="788" vert-adv-y="1000"  />

      
      <glyph glyph-name="uni0216" unicode="&#x0216;" d="M394-12Q244-12 160.50 71Q77 154 77 308L77 700L239 700L239 314Q239 126 395 126Q471 126 511 171.50Q551 217 551 314L551 700L711 700L711 308Q711 154 627.50 71Q544-12 394-12M211 757Q214 827 265 868Q316 909 395 909Q474 909 525 868Q576 827 579 757L481 757Q480 789 455.50 808.50Q431 828 395 828Q359 828 334.50 808.50Q310 789 309 757L211 757Z"  horiz-adv-x="788" vert-adv-y="1000"  />

      
      <glyph glyph-name="uni016A" unicode="&#x016A;" d="M394-12Q244-12 160.50 71Q77 154 77 308L77 700L239 700L239 314Q239 126 395 126Q471 126 511 171.50Q551 217 551 314L551 700L711 700L711 308Q711 154 627.50 71Q544-12 394-12M210 873L580 873L580 785L210 785L210 873Z"  horiz-adv-x="788" vert-adv-y="1000"  />

      
      <glyph glyph-name="uni1E7A" unicode="&#x1E7A;" d="M394-12Q244-12 160.50 71Q77 154 77 308L77 700L239 700L239 314Q239 126 395 126Q471 126 511 171.50Q551 217 551 314L551 700L711 700L711 308Q711 154 627.50 71Q544-12 394-12M210 857L580 857L580 774L210 774L210 857M297 924Q269 924 250 942.50Q231 961 231 990Q231 1018 250 1037Q269 1056 297 1056Q326 1056 345 1037Q364 1018 364 990Q364 961 345 942.50Q326 924 297 924M493 924Q465 924 446 942.50Q427 961 427 990Q427 1018 446.50 1037Q466 1056 493 1056Q521 1056 540 1037Q559 1018 559 990Q559 961 540 942.50Q521 924 493 924Z"  horiz-adv-x="788" vert-adv-y="1000"  />

      
      <glyph glyph-name="uni0172" unicode="&#x0172;" d="M711 700L711 308Q711 189 662 115Q613 41 524 8Q446-21 415-49.50Q384-78 384-107Q384-128 399-140.50Q414-153 441-153Q476-153 501-138L524-209Q505-219 478-225.50Q451-232 423-232Q359-232 322-201.50Q285-171 285-120Q285-58 344-9Q217 4 147 86Q77 168 77 308L77 700L239 700L239 314Q239 126 395 126Q471 126 511 171.50Q551 217 551 314L551 700L711 700Z"  horiz-adv-x="788" vert-adv-y="1000"  />

      
      <glyph glyph-name="uni016E" unicode="&#x016E;" d="M394-12Q244-12 160.50 71Q77 154 77 308L77 700L239 700L239 314Q239 126 395 126Q471 126 511 171.50Q551 217 551 314L551 700L711 700L711 308Q711 154 627.50 71Q544-12 394-12M394 754Q342 754 306.50 789Q271 824 271 875Q271 926 306.50 961Q342 996 394 996Q447 996 483 961Q519 926 519 875Q519 824 483 789Q447 754 394 754M394 814Q420 814 437.50 831.50Q455 849 455 875Q455 901 437.50 918.50Q420 936 394 936Q369 936 351.50 918.50Q334 901 334 875Q334 849 351 831.50Q368 814 394 814Z"  horiz-adv-x="788" vert-adv-y="1000"  />

      
      <glyph glyph-name="uni0168" unicode="&#x0168;" d="M394-12Q244-12 160.50 71Q77 154 77 308L77 700L239 700L239 314Q239 126 395 126Q471 126 511 171.50Q551 217 551 314L551 700L711 700L711 308Q711 154 627.50 71Q544-12 394-12M470 754Q443 754 422.50 764.50Q402 775 377 793Q361 805 350.50 811Q340 817 330 817Q309 817 296 802.50Q283 788 282 761L203 761Q205 828 236.50 867.50Q268 907 320 907Q346 907 366.50 896.50Q387 886 413 867Q429 855 439.50 849Q450 843 460 843Q480 843 493.50 857.50Q507 872 508 897L587 897Q585 832 553.50 793Q522 754 470 754Z"  horiz-adv-x="788" vert-adv-y="1000"  />

      
      <glyph glyph-name="uni1E78" unicode="&#x1E78;" d="M394-12Q244-12 160.50 71Q77 154 77 308L77 700L239 700L239 314Q239 126 395 126Q471 126 511 171.50Q551 217 551 314L551 700L711 700L711 308Q711 154 627.50 71Q544-12 394-12M469 755Q442 755 421 763.50Q400 772 375 788Q363 795 351.50 801Q340 807 331 807Q311 807 300 795Q289 783 287 761L207 761Q208 821 238.50 853.50Q269 886 323 886Q349 886 367.50 878Q386 870 414 854Q430 844 440.50 839Q451 834 461 834Q481 834 492 846.50Q503 859 505 879L583 879Q582 821 552 788Q522 755 469 755M420 1039L579 1039L422 918L309 918L420 1039Z"  horiz-adv-x="788" vert-adv-y="1000"  />

      
      <glyph glyph-name="uni56" unicode="&#x56;" d="M756 700L453 0L293 0L-9 700L166 700L379 200L595 700L756 700Z"  horiz-adv-x="746" vert-adv-y="1000"  />

      
      <glyph glyph-name="uni57" unicode="&#x57;" d="M1141 700L912 0L738 0L584 474L425 0L252 0L22 700L190 700L348 208L513 700L663 700L823 204L986 700L1141 700Z"  horiz-adv-x="1163" vert-adv-y="1000"  />

      
      </font>
</defs>
</svg>
